<svg xmlns="http://www.w3.org/2000/svg" xmlns:xlink="http://www.w3.org/1999/xlink"
                         viewBox="115 0 569.16 585.51">
  <defs>
	<clipPath id="clip-recursion" transform="translate(0 0)">
	  <rect x="236.23" y="156.83" width="127.92" height="231.28" fill="none"/>
	</clipPath>
	<clipPath id="clip-recursion-2" transform="translate(0 0)">
	  <rect x="447.35" y="5.41" width="127.92" height="146.49" fill="none"/>
	</clipPath>
	<clipPath id="clip-recursion-3" transform="translate(0 0)">
	  <rect x="370.96" y="156.83" width="204.31" height="109.53" fill="none"/>
	</clipPath>
	<clipPath id="clip-recursion-4" transform="translate(0 0)">
	  <rect x="372.63" y="397.14" width="296.98" height="109.53" fill="none"/>
	</clipPath>
	<clipPath id="clip-recursion-5" transform="translate(0 0)">
	  <rect x="199.26" y="38.78" width="241.28" height="113.12" fill="#f28d23"/>
	</clipPath>
	<clipPath id="clip-recursion-6" transform="translate(0 0)">
	  <rect x="370.51" y="273.73" width="241.28" height="113.12" fill="#f28d23"/>
	</clipPath>
	<clipPath id="clip-recursion-7" transform="translate(0 0)">
	  <rect x="125.36" y="395.35" width="241.28" height="113.12" fill="#f28d23"/>
	</clipPath>
  </defs>
  <title>excursion</title>
  <g id="__slider_excursion" data-name="Calque 3">
	<g id="Body_4_Excursion_" data-name="Body 4 (Excursion)">
	  <g id="Gallery_1_La_plongee_" data-name="Gallery 1 (La plongée)">
		<g clip-path="url(#clip-recursion)">
		  <image width="800" height="533" transform="translate(0 72.47) scale(0.75)"
				 xlink:href="img/SVG/links/4.jpg"/>
		</g>
		<g clip-path="url(#clip-recursion-2)">
		  <image width="800" height="533" transform="translate(341.75 0) scale(0.3)"
				 xlink:href="img/SVG/links/5.jpg"/>
		</g>
		<g clip-path="url(#clip-recursion-3)">
		  <image width="800" height="533" transform="translate(370.11 157.09) scale(0.26)"
				 xlink:href="img/SVG/links/6.jpg"/>
		</g>
		<g clip-path="url(#clip-recursion-4)">
		  <image width="800" height="533" transform="translate(363.09 362.93) scale(0.39)"
				 xlink:href="img/SVG/links/7.jpg"/>
		</g>
		<rect x="199.26" y="38.78" width="241.28" height="113.12" fill="#f28d23"/>
		<g clip-path="url(#clip-recursion-5)">
		  <path d="M287.69,148.79v6.72h-70.6V53.2H285.5v6.72H224.55v40.34h54.51v6.58H224.55v41.95Z"
				transform="translate(0 0)" fill="#fff"/>
		  <path
			  d="M358.57,155.51l-26.16-34.06-26.16,34.06h-8.33l30.25-39.32-28.64-37h8.33l24.55,31.72L357,79.21h8.18l-28.65,37,30.7,39.32Z"
			  transform="translate(0 0)" fill="#fff"/>
		  <path
			  d="M393.51,151.13a35.65,35.65,0,0,1-13.74-13.82,39.91,39.91,0,0,1-5-20,40.2,40.2,0,0,1,5-20.09,35,35,0,0,1,13.74-13.74,40,40,0,0,1,19.88-4.9,38.43,38.43,0,0,1,16.73,3.58,30.24,30.24,0,0,1,12.21,10.45l-5.41,4a26,26,0,0,0-10.16-8.55,31,31,0,0,0-13.37-2.85,31.88,31.88,0,0,0-16,4,28.54,28.54,0,0,0-11.11,11.32,34.34,34.34,0,0,0-4,16.81,34.29,34.29,0,0,0,4,16.81,28.57,28.57,0,0,0,11.11,11.33,31.88,31.88,0,0,0,16,4,31,31,0,0,0,13.37-2.85,26,26,0,0,0,10.16-8.55l5.41,3.94a30.09,30.09,0,0,1-12.21,10.45,38.44,38.44,0,0,1-16.73,3.59A39.62,39.62,0,0,1,393.51,151.13Z"
			  transform="translate(0 0)" fill="#fff"/>
		</g>
		<rect x="370.51" y="273.73" width="241.28" height="113.12" fill="#f28d23"/>
		<g clip-path="url(#clip-recursion-6)">
		  <path
			  d="M349.58,385.47a35.69,35.69,0,0,1-13.73-13.82,42.81,42.81,0,0,1,0-40,35.09,35.09,0,0,1,13.73-13.74,40,40,0,0,1,19.88-4.9,38.44,38.44,0,0,1,16.74,3.58A30.21,30.21,0,0,1,398.4,327L393,331a25.91,25.91,0,0,0-10.15-8.55,31.11,31.11,0,0,0-13.38-2.85,31.85,31.85,0,0,0-16,4,28.54,28.54,0,0,0-11.11,11.32,37.16,37.16,0,0,0,0,33.62,28.57,28.57,0,0,0,11.11,11.33,31.85,31.85,0,0,0,16,4A31.11,31.11,0,0,0,382.84,381,25.91,25.91,0,0,0,393,372.46l5.41,3.94a30.06,30.06,0,0,1-12.2,10.45,38.45,38.45,0,0,1-16.74,3.59A39.67,39.67,0,0,1,349.58,385.47Z"
			  transform="translate(0 0)" fill="#fff"/>
		  <path
			  d="M487.12,313.55v76.3h-7V373.48A28.34,28.34,0,0,1,468.85,386a33.53,33.53,0,0,1-17.54,4.46q-14.91,0-23.38-8.34t-8.48-24V313.55h7.31v44q0,12.85,6.57,19.58t18.57,6.73q12.86,0,20.39-8t7.52-21.63V313.55Z"
			  transform="translate(0 0)" fill="#fff"/>
		  <path
			  d="M536.08,317.43q7.45-4.46,18.13-4.46v7.16l-1.76-.14q-12.71,0-19.87,8t-7.17,22.14v39.76h-7.3v-76.3h7v16.67A26.37,26.37,0,0,1,536.08,317.43Z"
			  transform="translate(0 0)" fill="#fff"/>
		  <path
			  d="M576.86,387.66q-8.33-2.78-13-7l3.37-5.84a38.46,38.46,0,0,0,12,6.57A45.43,45.43,0,0,0,594.69,384q11.55,0,17-3.8a12.09,12.09,0,0,0,5.48-10.52,9.87,9.87,0,0,0-3-7.6,18.44,18.44,0,0,0-7.38-4.09q-4.4-1.32-12.14-2.78a100.44,100.44,0,0,1-14.61-3.51,22.75,22.75,0,0,1-9.5-6.14q-3.95-4.23-4-11.69,0-9.06,7.53-15T595.57,313A52.2,52.2,0,0,1,610,315a36.17,36.17,0,0,1,11.69,5.4l-3.36,5.85a34.69,34.69,0,0,0-10.67-5.11,43.44,43.44,0,0,0-12.27-1.76q-10.68,0-16.08,4a12.25,12.25,0,0,0-5.41,10.37c0,3.42,1,6.07,3.07,8a19.35,19.35,0,0,0,7.53,4.24c3,.93,7.13,1.92,12.49,3a106.76,106.76,0,0,1,14.4,3.43,21.89,21.89,0,0,1,9.28,5.92q3.79,4.1,3.8,11.25a17.87,17.87,0,0,1-7.89,15.21q-7.89,5.68-22.22,5.7A55.16,55.16,0,0,1,576.86,387.66Z"
			  transform="translate(0 0)" fill="#fff"/>
		</g>
		<rect x="125.36" y="395.35" width="241.28" height="113.12" fill="#f28d23"/>
		<g clip-path="url(#clip-recursion-7)">
		  <path
			  d="M98.88,509.28q-8.32-2.77-13-7l3.36-5.84A38.63,38.63,0,0,0,101.29,503a45.43,45.43,0,0,0,15.42,2.63q11.55,0,17-3.8a12.11,12.11,0,0,0,5.48-10.52,9.84,9.84,0,0,0-3-7.6,18.31,18.31,0,0,0-7.38-4.09q-4.38-1.32-12.13-2.78a100.44,100.44,0,0,1-14.61-3.51,22.75,22.75,0,0,1-9.5-6.14q-4-4.23-3.95-11.69,0-9.06,7.53-15t21.41-5.92a52.26,52.26,0,0,1,14.47,2.05,36.17,36.17,0,0,1,11.69,5.4l-3.36,5.85a34.8,34.8,0,0,0-10.67-5.11A43.51,43.51,0,0,0,117.44,441q-10.66,0-16.08,4A12.26,12.26,0,0,0,96,455.34c0,3.42,1,6.07,3.07,8a19.31,19.31,0,0,0,7.52,4.24c3,.93,7.14,1.92,12.5,3a107.14,107.14,0,0,1,14.4,3.43,22,22,0,0,1,9.28,5.92q3.79,4.1,3.8,11.25a17.87,17.87,0,0,1-7.89,15.21q-7.9,5.7-22.22,5.7A55.12,55.12,0,0,1,98.88,509.28Z"
			  transform="translate(0 0)" fill="#fff"/>
		  <path
			  d="M166.41,414.93a5.54,5.54,0,0,1-1.76-4.16,6,6,0,0,1,6-6,5.89,5.89,0,0,1,4.24,1.68,5.54,5.54,0,0,1,1.76,4.17,6,6,0,0,1-6,6A5.9,5.9,0,0,1,166.41,414.93Zm.58,20.24h7.31v76.3H167Z"
			  transform="translate(0 0)" fill="#fff"/>
		  <path
			  d="M215.44,507.09a35.78,35.78,0,0,1-13.66-13.82,42.53,42.53,0,0,1,0-39.9,35.76,35.76,0,0,1,13.66-13.81,40.8,40.8,0,0,1,39,0,35.83,35.83,0,0,1,13.66,13.81,42.53,42.53,0,0,1,0,39.9,35.85,35.85,0,0,1-13.66,13.82,40.8,40.8,0,0,1-39,0Zm35.23-5.7a29.47,29.47,0,0,0,11-11.4,36.55,36.55,0,0,0,0-33.33,29.47,29.47,0,0,0-11-11.4,32.24,32.24,0,0,0-31.43,0,29.4,29.4,0,0,0-11,11.4,36.55,36.55,0,0,0,0,33.33,29.4,29.4,0,0,0,11,11.4,32.24,32.24,0,0,0,31.43,0Z"
			  transform="translate(0 0)" fill="#fff"/>
		  <path
			  d="M355.68,442.92q8.34,8.34,8.33,24v44.58h-7.3v-44q0-12.87-6.51-19.59T332,441.17q-13.44,0-21.19,8t-7.75,21.63v40.63h-7.3v-76.3h7v16.52a29,29,0,0,1,11.77-12.57A36.22,36.22,0,0,1,333,434.59Q347.36,434.59,355.68,442.92Z"
			  transform="translate(0 0)" fill="#fff"/>
		</g>
	  </g>
	</g>
  </g>
</svg>