<?xml version="1.0" encoding="utf-8"?>
<!-- Generator: Adobe Illustrator 22.1.0, SVG Export Plug-In . SVG Version: 6.00 Build 0)  -->
<svg version="1.1" id="Calque_1" xmlns="http://www.w3.org/2000/svg" xmlns:xlink="http://www.w3.org/1999/xlink" x="0px" y="0px"
	 viewBox="0 0 405 154.7" style="enable-background:new 0 0 405 154.7;" xml:space="preserve">
<style type="text/css">
	.st0{fill:#FFFFFF;}
</style>
<title>hebergement</title>
<g id="Calque_2_1_">
	<g id="Body_2">
		<path class="st0" d="M2.8,4.5h14.7V56h31.8v12H2.8V4.5z"/>
		<path class="st0" d="M63.9,2.4c1.7,1.7,2.5,4,2.5,6.3c0,1.2-0.2,2.4-0.5,3.6c-0.5,1.9-1.1,3.7-1.9,5.4l-5.3,13h-9l3.9-14.3
			c-1.5-0.6-2.7-1.7-3.5-3c-0.9-1.4-1.3-3.1-1.3-4.8c-0.1-2.4,0.8-4.6,2.5-6.3c1.7-1.6,4-2.4,6.3-2.4C59.9-0.1,62.2,0.8,63.9,2.4z"
			/>
		<path class="st0" d="M120.2,23.9c3.7,3.6,5.6,9,5.6,16.1v28h-14.1V42.2c0-3.9-0.8-6.8-2.5-8.7c-1.7-1.9-4.1-2.9-7.3-2.9
			c-3.2-0.2-6.3,1-8.5,3.3c-2.1,2.2-3.2,5.5-3.2,9.8V68H75.9V0.7h14.1v23.6c1.9-1.9,4.2-3.4,6.8-4.3c2.8-1,5.7-1.5,8.7-1.5
			C111.6,18.5,116.5,20.3,120.2,23.9z"/>
		<path class="st0" d="M186.5,47.6h-36.9c0.6,2.9,2.3,5.5,4.7,7.2c2.7,1.8,6,2.7,9.2,2.6c2.3,0,4.6-0.3,6.8-1.1c2-0.8,3.9-2,5.5-3.6
			l7.5,8.2c-4.6,5.3-11.3,7.9-20.1,7.9c-5,0.1-10-1-14.6-3.2c-4-2-7.4-5.1-9.8-8.9c-2.3-3.9-3.5-8.4-3.4-13c-0.1-4.5,1.1-9,3.4-12.9
			c2.2-3.8,5.4-6.9,9.3-9c8.2-4.2,18-4.3,26.2-0.1c3.8,2,7,5.1,9.1,8.8c2.3,4.1,3.4,8.7,3.3,13.4C186.8,43.9,186.7,45.2,186.5,47.6z
			 M153.5,31.9c-2.2,1.9-3.6,4.5-4,7.4h24c-0.4-2.9-1.8-5.5-4-7.4c-2.2-1.9-5.1-2.9-8-2.8C158.6,29.1,155.7,30.1,153.5,31.9z"/>
		<path class="st0" d="M237.4,21.6c3.7,2,6.7,5.1,8.7,8.8c2.2,4,3.3,8.6,3.2,13.2c0.1,4.6-1,9.1-3.2,13.2c-2,3.7-5.1,6.7-8.7,8.8
			c-3.8,2.1-8.1,3.2-12.4,3.1c-6.7,0-11.8-2.1-15.3-6.3V68h-13.5V0.7h14.1v23.6c3.6-3.9,8.5-5.9,14.7-5.9
			C229.3,18.4,233.6,19.5,237.4,21.6z M231.5,53.4c2.3-2.4,3.5-5.7,3.5-9.8s-1.2-7.4-3.5-9.8c-4.9-4.9-12.9-4.9-17.9,0
			c-2.3,2.4-3.5,5.7-3.5,9.8s1.2,7.4,3.5,9.8C218.6,58.3,226.6,58.3,231.5,53.4L231.5,53.4z"/>
		<path class="st0" d="M306.2,47.6h-36.9c0.6,2.9,2.3,5.5,4.7,7.2c2.7,1.8,6,2.7,9.2,2.6c2.3,0,4.6-0.3,6.7-1.1c2-0.8,3.9-2,5.5-3.6
			l7.5,8.2c-4.6,5.3-11.3,7.9-20.1,7.9c-5,0.1-10-1-14.6-3.2c-4-2-7.4-5.1-9.8-8.9c-2.3-3.9-3.5-8.4-3.4-13c-0.1-4.5,1.1-9,3.4-12.9
			c2.2-3.8,5.4-6.9,9.3-9c8.2-4.2,18-4.3,26.2-0.1c3.8,2,7,5.1,9.1,8.8c2.3,4.1,3.4,8.7,3.3,13.4C306.5,43.9,306.4,45.2,306.2,47.6z
			 M273.1,31.9c-2.2,1.9-3.7,4.5-4,7.4h24c-0.4-2.9-1.8-5.5-4-7.4c-2.2-1.9-5.1-2.9-8-2.8C278.2,29.1,275.4,30.1,273.1,31.9z"/>
		<path class="st0" d="M336.3,20.3c3.2-1.3,6.5-1.9,9.9-1.8v13c-1.6-0.1-2.6-0.2-3.2-0.2c-4.1,0-7.2,1.1-9.5,3.4s-3.5,5.7-3.5,10.2
			V68h-14.1V19.2h13.5v6.4C331.1,23.2,333.5,21.4,336.3,20.3z"/>
		<path class="st0" d="M352.8,43.2h25.6v11.3h-25.6V43.2z"/>
		<path class="st0" d="M57,87.7v40.6c0,8.9-2.3,15.6-7,19.9s-11.5,6.5-20.4,6.5c-4.5,0-9-0.6-13.4-1.7c-3.8-0.9-7.4-2.6-10.5-5
			l5.6-10.1c2.3,1.8,5,3.2,7.8,4c3,1,6.2,1.5,9.4,1.5c4.9,0,8.5-1.1,10.8-3.3c2.3-2.2,3.5-5.5,3.5-10V128c-3.7,4.1-8.8,6.1-15.4,6.1
			c-4.3,0-8.5-1-12.3-2.9c-3.7-1.9-6.7-4.8-8.8-8.3c-4.3-7.6-4.3-17,0-24.6c2.1-3.5,5.2-6.4,8.8-8.3c3.8-2,8-3,12.3-3
			c7.1,0,12.4,2.3,16.1,7v-6.2H57z M39.4,119.2c4.8-4.8,4.8-12.5,0-17.3c-2.5-2.3-5.8-3.4-9.2-3.3c-3.4-0.1-6.7,1.1-9.2,3.3
			c-4.8,4.7-4.8,12.4-0.1,17.2c0,0,0.1,0.1,0.1,0.1c2.5,2.2,5.8,3.4,9.2,3.3C33.6,122.6,36.9,121.4,39.4,119.2z"/>
		<path class="st0" d="M117.6,116H80.7c0.6,2.9,2.3,5.5,4.7,7.2c2.7,1.8,6,2.7,9.2,2.6c2.3,0,4.6-0.3,6.8-1.1c2-0.8,3.9-2,5.5-3.6
			l7.5,8.2c-4.6,5.3-11.3,7.9-20.1,7.9c-5,0.1-10-1-14.6-3.2c-4-2-7.4-5.1-9.8-8.9c-4.6-8-4.6-17.8,0-25.9c2.2-3.8,5.4-6.9,9.3-9
			c8.2-4.2,17.9-4.3,26.2-0.1c3.8,2,7,5.1,9.1,8.8c2.3,4.1,3.4,8.7,3.3,13.4C117.9,112.4,117.8,113.7,117.6,116z M84.5,100.3
			c-2.2,1.9-3.7,4.5-4,7.4h24c-0.4-2.9-1.8-5.5-4-7.4c-2.2-1.9-5.1-2.9-8-2.8C89.6,97.5,86.8,98.5,84.5,100.3L84.5,100.3z"/>
		<path class="st0" d="M204.2,92.3c3.6,3.6,5.4,9,5.4,16.2v27.9h-14.1v-25.7c0-3.9-0.8-6.8-2.4-8.7c-1.7-2-4.2-3-6.8-2.9
			c-3-0.1-5.9,1-7.9,3.2c-1.9,2.1-2.9,5.3-2.9,9.6v24.5h-14.1v-25.7c0-7.7-3.1-11.5-9.2-11.5c-2.9-0.1-5.8,1.1-7.8,3.2
			c-1.9,2.1-2.9,5.3-2.9,9.6v24.5h-14.1V87.7h13.5v5.6c1.8-2.1,4.1-3.7,6.7-4.7c2.8-1.1,5.7-1.6,8.6-1.6c3.2-0.1,6.4,0.6,9.3,2
			c2.7,1.3,5.1,3.4,6.7,5.9c2-2.6,4.6-4.6,7.6-5.9c3.1-1.4,6.6-2.1,10-2.1C195.8,87,200.6,88.8,204.2,92.3z"/>
		<path class="st0" d="M270.3,116h-36.9c0.6,2.9,2.3,5.5,4.7,7.2c2.7,1.8,6,2.7,9.2,2.6c2.3,0,4.6-0.3,6.8-1.1c2-0.8,3.9-2,5.5-3.6
			l7.5,8.2c-4.6,5.3-11.3,7.9-20.1,7.9c-5,0.1-10-1-14.6-3.2c-4-2-7.4-5.1-9.8-8.9c-2.3-3.9-3.5-8.4-3.4-13c-0.1-4.5,1.1-9,3.4-12.9
			c2.2-3.8,5.4-6.9,9.3-9c4.1-2.1,8.7-3.2,13.3-3.1c4.5-0.1,8.9,0.9,12.9,3c3.8,2,7,5.1,9.1,8.8c2.3,4.1,3.4,8.7,3.3,13.4
			C270.6,112.4,270.5,113.7,270.3,116z M237.3,100.3c-2.2,1.9-3.6,4.5-4,7.4h24c-0.4-2.9-1.8-5.5-4-7.4c-2.2-1.9-5.1-2.9-8-2.8
			C242.3,97.5,239.5,98.5,237.3,100.3L237.3,100.3z"/>
		<path class="st0" d="M324.3,92.4c3.7,3.6,5.6,9,5.6,16.1v27.9h-14.1v-25.7c0-3.9-0.8-6.8-2.5-8.7c-1.7-1.9-4.1-2.9-7.3-2.9
			c-3.2-0.1-6.3,1.1-8.5,3.3c-2.1,2.2-3.2,5.5-3.2,9.8v24.1H280V87.7h13.5v5.7c1.9-2.1,4.3-3.7,7-4.8c2.9-1.1,6-1.7,9.2-1.6
			C315.7,87,320.6,88.8,324.3,92.4z"/>
		<path class="st0" d="M374,134.1c-1.5,1.1-3.3,1.9-5.1,2.3c-2.1,0.5-4.2,0.8-6.4,0.8c-5.8,0-10.3-1.5-13.5-4.4
			c-3.2-3-4.8-7.3-4.8-13v-20h-7.5V88.8h7.5V76.9h14.1v11.9h12.1v10.9h-12.1v19.8c-0.1,1.7,0.5,3.4,1.6,4.8c1.2,1.2,2.8,1.8,4.5,1.7
			c2.1,0.1,4.1-0.6,5.7-1.8L374,134.1z"/>
	</g>
</g>
</svg>
