<svg xmlns="http://www.w3.org/2000/svg" xmlns:xlink="http://www.w3.org/1999/xlink" viewBox="0 0 232.99 255.67"><defs><linearGradient id="Dégradé_sans_nom_2" x1="37.76" y1="105.94" x2="37.76" y2="105.94" gradientUnits="userSpaceOnUse"><stop offset="0" stop-color="#f57095"/><stop offset="0.06" stop-color="#f5778f"/><stop offset="0.49" stop-color="#f7ae65"/><stop offset="0.82" stop-color="#f9cf4a"/><stop offset="1" stop-color="#f9dc40"/></linearGradient><linearGradient id="Dégradé_sans_nom_38" x1="46.86" y1="106.43" x2="46.77" y2="99.12" gradientUnits="userSpaceOnUse"><stop offset="0" stop-color="#f89b56"/><stop offset="0.31" stop-color="#f6a659"/><stop offset="0.85" stop-color="#f2c562"/><stop offset="1" stop-color="#f1ce65"/></linearGradient><linearGradient id="Dégradé_sans_nom_2-2" x1="37.29" y1="115.49" x2="48.86" y2="107.7" xlink:href="#Dégradé_sans_nom_2"/></defs><title>map</title><g id="Calque_2" data-name="Calque 2"><g id="Body_6_Contact_" data-name="Body 6 (Contact)"><g id="Carte"><path d="M107.11,25.7h0Z" fill="none" stroke="#fff" stroke-linecap="round" stroke-linejoin="round" stroke-width="0.86"/><path d="M232.44,237.55a61.35,61.35,0,0,1-7.23-6.79c-.44-1.86-1.39-3.71-.86-5.77,1-.27.66-1.07.67-1.7a25.71,25.71,0,0,1,.06-4.65,6.08,6.08,0,0,0-1.61-5.59c-.84-2-1.67-4-2.46-5.92-2.47-.2-4.58,2.05-5.41,5.5L214.07,214l-1.91.52a7,7,0,0,0-3.56-1.67c-.67-3-1.56-5.75-3.95-7.86a35.76,35.76,0,0,1-6.19-6.63,2,2,0,0,0-2.7-.61c-1.26.73-2.36.4-3.58-.11A4.17,4.17,0,0,0,189.9,195c-.93-.32-1-1-1.37-1.6-1-1.87-2.47-3.46-3-5.45-1.75.09-1.19,2.84-3.25,2.26a1.55,1.55,0,0,1-.47-1.35,1.11,1.11,0,0,0-1-1.36c-2.64.05-2.66-1.74-2.6-3.43-.58-.82-1.65-1.15-1.3-2.52.17-.39,1.09-.3,1.24-1s-.13-1.53.68-2.28h3.53a8.37,8.37,0,0,1,2.61-1.9c.33-3.65-.26-7.27.3-10.69,1.07-.42,1.44.61,2.43.42a5.41,5.41,0,0,0,2.54-2.9c1-1,2.55-.48,3.21-1.63-.17-2.19-2.26-1.39-3.51-2.3a2.58,2.58,0,0,0-.58-2.67c0-.81.81-1,.71-1.58-.57-1.43-2.22-.38-3-1.5,0-2.23,1.95-1.7,3.18-2.19,3-2.59,6.49-2.67,7.93-.13-.13,1-.61,2-.18,2.92.85,1.22,2,.41,3,.67,2.09,2,1.18,4.94,2.38,7.22.79,1.46,2.19,1.55,3.69,1.58,2.63,0,3.91,1.61,3.41,4.13a1.89,1.89,0,0,0,.68,2.18h4.44a6.92,6.92,0,0,0,1.92-2.2,10,10,0,0,1-.8-5.67,11.27,11.27,0,0,0-1-5.66c-.93-2.06-.33-3.71.81-5.41a15.88,15.88,0,0,0,2.35-4,4.23,4.23,0,0,1-1.32-3.78c.32-3.27.12-6.4-2.54-8.94-.89-.85-2.18-1.57-2.35-3.05-.23-2.1-1.4-2.91-3.49-2.68-1.24.14-2.56-.18-3.75.11a6.61,6.61,0,0,1-5.36-.9l-2.82.78c-1.37-1.14-2.84-.79-4.39,0-.2-1.22-.38-2.25-.51-3.29s-.24-2.09-.34-3.07c.35-.63,1.21-.64,1.31-1.39-1.77-4.23-1.93-5.58-.58-8.13,1.6-3,3.2-6.06,5.73-8.29,1-3.77-1-7.23-.54-10.74l-1.51-1.79c.5-1.77-1.12-2.89-1.46-4.4a18.44,18.44,0,0,1,.8-10.84,1.92,1.92,0,0,0,.09-1.6l-2.12-1.37-1.66.79c-1.81,2.14-1.4,4.44-.57,6.58a4.09,4.09,0,0,1-1.78,1.63c-1.41.82-3.11,1.53-3.1,3.59,0,2.32-1.64,4.16-1.76,6.44a1.15,1.15,0,0,1-.72.81c-2,.31-2.93,1.9-3.84,3.35a7.07,7.07,0,0,1-3.31-.14c-.48-2.34.06-4.68-.32-7l-2-1.12c-.95,1-2.06.8-3.16.48-.83.66-1.73,1.53-2.71,1-1.61-.88-3.33-.43-4.94-.75l-1.93-1.68c-2,0-3.81,1.3-5.7-.07.23-.62.72-1,.55-2-.88-.94-1-2.54-1.72-3.86a2.2,2.2,0,0,1,1.1-1.22c.92-.29,1.8,0,2.64-.49A9.22,9.22,0,0,1,165,78.43c.94.11,1.91,0,2.32-1.35-2.26-1.54-3.5-4-5-6.28-.94-1.47-1.76-3.29-1.24-4.76,1.1-3.07.22-5.93-.05-8.54a9.94,9.94,0,0,1,3.45-6.09,9,9,0,0,1,5.45.75c1.32-2.13,2-4.76,5.09-4.34a1.91,1.91,0,0,0-.1-2c-1.58-.19-3.17-.53-4.1-2.14a3.54,3.54,0,0,1,.11-1.92l1.3-1c.12-2.33-1.39-3.91-2.54-5.74,1.47-2,3.66-3.14,5.1-5.19.82,1,.2,2,.82,3,.34.67,1.76,0,2.16,1.13-.43,1.74-2.21.74-3.09,1.51.28,1.47.28,1.47,1.85,1.9,1.46-.79,2.63-2.25,4.64-2.16.48-2.29-1.12-3.76-1.91-5.38-.92-1.88-1.3-3.48,0-5.24.29-.39.69-.75.59-1.21C175.48,21,173,16.71,169.31,13.13c.38-2.64,2.53-5.55,1.16-8.87-1.68-.08-2.05,1.67-3.34,2.1l-1.43.13c-2.59,1.84-4.59,3.62-5.73,5.89h-3.76c-1.5-.87-1.46-3-3.26-3.18-.59-1.37.14-2.8-.72-4.06a19.51,19.51,0,0,1-6.82-2.06c-1.18.52-2.49.31-3.75.58-.27-1.06.65-1.7.63-2.67-2.58-.9-5.23-.41-7.83-.55a6.76,6.76,0,0,0-3.54,1C128.21,2.81,125.84,4.73,123,6c-1.47.66-3.37,1-4.05,2.81a15,15,0,0,1-6.77,7.75,2,2,0,0,1-2.91-.55c-.32-.36-.28-1-1-1.18-1.08.11-1.7.64-1.4,1.91.68.44,1.59.3,2,1.15.57,2.84-.66,5.32-1.79,7.82l2.3.61c1.45,1.49,1.26,4,2.8,5.53.41.37,1.12.19,1.35.57a28.6,28.6,0,0,1,1.49,11.09l1.49,1c-.43,3.18-1.9,6-1.4,9.14,1.08,1.41,3,1.15,4.35,2.27.05.9.1,1.89.15,2.83l3,4.26v4.94l1.83.81c.83,3.1,2.52,5.92.76,9.59a29.28,29.28,0,0,1-6.18,8c-1,.35-2.37-.32-3.39.47-1.51,1.17-3.22,1.2-5,1.14-1.19,0-2.37,0-3.06,0-1.65.6-1.47,1.81-1.86,2.6-2.13,1.58-4.11,1.71-6.17,0-1.8-1.54-4-2.6-5.48-4.39.52-1.34,1.61-1.16,2.28-1.35,1.52-2,2.73-3.95,1.75-6.47-1.87-.41-3.85.24-5.63-.9,0-.45-.08-.94-.12-1.44s-.08-1-.11-1.38c-2-2-2.43-2.17-4.27-1.27a4.57,4.57,0,0,0,.11,2.22A5,5,0,0,1,90.3,77v7.46c-2.52,1.69-5.68-.69-8.13,1.14,0,.79.59,1.13.36,1.77a6.64,6.64,0,0,1-2.68,3.44,20.72,20.72,0,0,1-10.41-1.35,3.72,3.72,0,0,1-2.62-3,3.4,3.4,0,0,0-.69-2.08,3.72,3.72,0,0,1-.71-3.7h1.1c.6.52-.21,2.22,1.75,1.66-.67-2,2.33-3.2,1.17-5.57a9.75,9.75,0,0,1-4.73-1.51,23.32,23.32,0,0,0-4.57-2.77c-2.19-.76-2.87-2.41-3.54-4.25-.23-.62.27-1.42-.48-1.91a5.55,5.55,0,0,1,.6-2.47,2.23,2.23,0,0,0-.46-2.41c-.3-.37-.89-1-1.51-.22A5.16,5.16,0,0,1,52.63,60c-1.45-1.29-3.26-1.31-5-1.6A9.5,9.5,0,0,0,45.23,62c-1.62-.46-3.26.07-4.67-.38-.58.15-.46.78-1,.79-1.25-.67-1.2-2.5-2.73-3.06-1.8-.18-1.8-.18-3.79,1.36-2-.11-3.58,1-5.31,1.85a6.76,6.76,0,0,0,1.56,5.95,7.14,7.14,0,0,0,3.17-.06,9,9,0,0,0,1.41,1.48,28.94,28.94,0,0,1,4.06,3.46c1.69,1.74,2.63,4.2,5.44,4.61.07,0,.11.2.17.32-.11.64-1.12,1-.67,1.82.76.65,1.9-.17,2.79.85-.48,1.59.56,3.15.68,4.86A4.23,4.23,0,0,0,49,87c2.18-1.07,4.81-1.28,6-3.6a4.58,4.58,0,0,1,2.4,0c2.05,3,2.73,7.36,2.07,11.17A4,4,0,0,0,59.5,96c.31,2.08-.35,3.67-2.41,4.51a5.6,5.6,0,0,0-.9.64v5.45c-2.32,0-3.38,2.34-4.92,2.33-3,1.8-3.2,5.16-5.39,7-2.65-1.55-6.54-.82-7.64,1.25,0,.21-.1.52,0,.69,1.34,2,.09,4.49,1.37,6.5a1.82,1.82,0,0,1-.13,1.63c-.68,1-.43,2-.57,3.08-.39,2.77,1.46,5.34.56,8.37a2.11,2.11,0,0,1-2.52,1,5.54,5.54,0,0,1,.52,2.28v1a4.91,4.91,0,0,1-.18,1.33l.48-.11c.7,5.2,1.39,10.29,2.1,15.55.7,1.37,2.16,2.13,3.49,2.85a42.37,42.37,0,0,1,3.5,16.22c-.89,4-.5,8.15-.61,12.22-.07,2.51.2,4.71-2,6.19a3.58,3.58,0,0,0,0,2.11l2.21,1.26c.82-.84,1.81-.75,2.94-.89.84,3,2,5.91,1.36,9.28a7.56,7.56,0,0,0-.91-.37,30,30,0,0,1,3.4,6.56c.07.16.13.33.2.5.5.56,1,1.13,1.42,1.73a5,5,0,0,0,1-.94,12.63,12.63,0,0,0,2.8,1.08c5.11,3.57,5.49,9.49,7.46,14.62a2.14,2.14,0,0,0,1.88,0c.29-1.07.69-2,2.07-2,2.16,0,2.41,1.77,3,3.34a2.73,2.73,0,0,0,.86-3.76c-.87-1.33-.81-2.7-1.11-4.06.85-1.57,2.58-2.9.53-5.82-.9-1.82-3.76-2.56-6.75-3.56,1-.72,1.9-.35,2.8-.68.12-.8,1.13-.86,1.61-1.49.59-.83-.37-1.53-.11-2.8,4-.4,7.83.88,11.84,2.11a3.91,3.91,0,0,1,3.74-.33,9.11,9.11,0,0,0,4-2.49,3.21,3.21,0,0,1,2,.15c1.36,1.87,0,3-1.1,3.94-.32,2.53.86,4.21,2.81,5.77-3.35,2-3.34,4.51-1.48,7.28,2.73.54,5.55.27,8.31,1.09.52.78.76,1.92,1.9,2.25.78-.35,1-1.35,1.91-1.46.52.34.69,1.12,1.5,1.09l1-1.25c1.08-.18,2-.22,2.19,1.25l-1.2,2.24,1.88,1.27c.33.56,0,1.3.58,1.77a1.82,1.82,0,0,0,2.38-.86c.4-1,0-1.84.51-2.58a1.33,1.33,0,0,1,1.49.2c-.06,1.36,2,2.28.88,4.15-1.09,0-2.41.14-2.52,1.54-.16,2-.61,4.16,1.1,5.9l2.9.16,1.74,1.48c1.73-.42,3.32.38,4.64,1,1.71-.43,1.3-2,2.13-2.77A10.52,10.52,0,0,0,129,236.5c.42-2.66.67-5.75,4.53-5.89a2.22,2.22,0,0,0,.6-.16c1.73.65,1,2.19,1.41,3.36l2.4,1.68c2,.2,4.07.74,6-.38.29-1.61-1.42-2.06-1.71-3.29.37-1.43.07-3.27,2.28-3.67,1.93.51,1.7,2.66,2.73,4a9.57,9.57,0,0,0,3.64-1.54c.51-.68.48-1.58,1.27-1.91.93.54.27,1.6.92,2.34.78.53,2,.88,2.23,2.09-.17,1.07-1.11,1.15-1.73,1.62a1.65,1.65,0,0,0-.65,2.13c3.62.76,4.84,0,5.43-3.42a1.94,1.94,0,0,1,1.16-1.57c.72-.34,1.43-.74,1.82-.94,1.1-1.74-.45-3.54.84-5.18a8.64,8.64,0,0,0,3.38,2.26,12.42,12.42,0,0,1,3.78,2c0,3,.94,5.8,1.53,8.68a.89.89,0,0,0-.06.35,5.75,5.75,0,0,1,1.6,5.58,15.77,15.77,0,0,1,1.1,1.45l.74.11a5,5,0,0,0,2.54,2.9c-.17,1.72,2.07,2.43,1.63,4.29a5.82,5.82,0,0,1,2.31,1.5c5.67,1.31,10.36-.77,15.15-2.44,2.47-.85,4.16-3.22,6.95-3.38,1.12-1.61,1.1-3.74,2.35-5.22,2-2.33,4.84-3.87,5.78-7.09.19-.67,1.77-.65,1.91-1.6.31-2,1.89-2.23,3.31-2.88a10.84,10.84,0,0,0,2.73,2,9.49,9.49,0,0,0,.89,3.33c.92.15,1.31-.65,2.18-.79,1.25.71,2.82,0,4.36.53a9.66,9.66,0,0,0,5.29,2.51A1.77,1.77,0,0,0,232.44,237.55ZM76.8,148.68c-.42-1.18-.79-2.24-1.28-3.61a7.19,7.19,0,0,1-6.33,2.68c-4.13-2.67-4.61-6.83-5.39-10.87-.31-1.6,1-2.18,1.79-3.07,1.33-1.51,2.57-3,5.06-1.62,1.58.88,3-.89,4.49-1.34,1.79.77-.23,2.3.7,3.29a28.08,28.08,0,0,1,2.22,3.05c-1.09,2.25-2.85,4.26-2,7.08,1.57-.29,2.6-2.17,4.42-1.24a4.82,4.82,0,0,1,1.94,1.47c0,.43-.08.92-.13,1.45l1,1.47C82,150,79.35,150.53,76.8,148.68Zm7.8-19.05a10.36,10.36,0,0,1-2.25,3c-1.68.09-2.35-1.11-3.25-1.82-.5-2.68.51-4.16,3-4.45a2.31,2.31,0,0,1,2.31,1A2,2,0,0,1,84.6,129.63Zm1.67-18.51c-2.73.9-5.28-.3-8.1-.33-.23-3.63,2.73-4.13,4.76-5.51a10,10,0,0,1,3.26,1.92A11.85,11.85,0,0,1,86.27,111.12Zm14.36,24.71c-3.39,1-5-.32-4.66-3.69,1.51,0,2.81-2.22,4.43-.83C101.73,132.46,101.13,134.26,100.63,135.83Zm2.68,72.85c1-.55,1.92,0,2.53,1a8.38,8.38,0,0,1,0,3c-1.36.72-2.37.23-3.39-.57C102.15,210.82,101.83,209.45,103.31,208.68Zm.78,13.32a2,2,0,0,1-1-2.69c.44-1.37,1.55-1.6,4.1-.92a13.4,13.4,0,0,1,.87,1.09,12.06,12.06,0,0,1,.56,1.24A3.55,3.55,0,0,1,104.09,222Zm-1.71-74c-.52-3.64-.24-4.36,2.76-7.2a6.87,6.87,0,0,1,2.71,0,10.83,10.83,0,0,1,1.73,6C106.5,150.7,105.13,150.93,102.38,148Z" fill="none" stroke="#fff" stroke-linecap="round" stroke-linejoin="round" stroke-width="0.86"/><path d="M128.66,130.78a.75.75,0,0,1,0,.16.75.75,0,0,0,0-.16.58.58,0,0,0,0-.28A.58.58,0,0,1,128.66,130.78Z" fill="none" stroke="#fff" stroke-linecap="round" stroke-linejoin="round" stroke-width="0.86"/><path d="M210.77,216.15h0c-.05,0-.1-.09-.13-.08S210.72,216.12,210.77,216.15Z" fill="none" stroke="#fff" stroke-linecap="round" stroke-linejoin="round" stroke-width="0.86"/><path d="M218.38,213.94h0Z" fill="none" stroke="#fff" stroke-linecap="round" stroke-linejoin="round" stroke-width="0.86"/><path d="M21.38,128.23c.32-1.24-.06-2.68,1.23-4a11.55,11.55,0,0,0,4-3.18c2.1.26,2.44-1.36,2.73-2.83,1.38-.6,2.93.28,4.07-.87a5,5,0,0,0-.85-4.65c-1.09-3.06-1-5.72-2.21-8-.55-.24-1.06-.51-1.71-.05-.41.57-.58,1.45-1.28,1.92-2.05,1.35-4.57.8-6.76,1.63a1.19,1.19,0,0,1-.87-.29A15.15,15.15,0,0,0,15,105.71c-2.45-.77-4.7-.82-6.86.54l-.32,2c-2.4,2.1-3.6,5.47-7.26,6.36,0,2.4-.57,4.87.61,7.22C0,124,.53,126.15.57,128.44a10.9,10.9,0,0,1,4.55.46C1.92,131.15,1,134,2,137.37l2.15.52c1.55-1,2.56-2.5,3.73-3.67.33-1.92-.16-3.76.42-5.71,2,.4,4-.47,5.83.54a1.77,1.77,0,0,0,2,0,4.23,4.23,0,0,1,2.52-.53C19.51,128.49,20.48,128.79,21.38,128.23Z" fill="none" stroke="#fff" stroke-linecap="round" stroke-linejoin="round" stroke-width="0.86"/><path d="M29.64,50.89l-.33.85c.33.43.92-.18,1.23.49a3.52,3.52,0,0,1,0,.62c-.44,3.22.82,4.38,4.09,3.81a6.37,6.37,0,0,1,2.42,0c2.07.47,4-.07,6.52-.19-1.08-1.44.55-3-.92-4.13-3.69,1.55-7.63,0-11.52,1,.5-.89-.38-1.5-.39-2.21.17-.74,1.22-.61,1.14-1.64-1.57-.26-3.26.14-4.94-.74.15,1.15,1.05,1.47,1.29,2.23Z" fill="none" stroke="#fff" stroke-linecap="round" stroke-linejoin="round" stroke-width="0.86"/><path d="M33.73,80.46c2,2.53,3.38,5.38,5.9,7.71A6.58,6.58,0,0,1,41,85.49c0-1.38.21-2.72-.35-4H37.87c-.75-1.17-2.29-1.34-3.09-2.55-1.53.21-3.38-1.47-4.41.95.18.83.27,1.68,1.35,1.78C32.39,81.3,32.82,80.6,33.73,80.46Z" fill="none" stroke="#fff" stroke-linecap="round" stroke-linejoin="round" stroke-width="0.86"/><path d="M33.63,49.06Z" fill="none" stroke="#fff" stroke-linecap="round" stroke-linejoin="round" stroke-width="0.86"/><path d="M33.63,50.93c.92,1.38,1.9.83,2.55.33,2.48.73,4.72.32,6.9.34.35-.74.57-1.31-.17-1.68-.76,0-.82,1.24-1.67.87-.33-1.63,1.89-.87,2-2.27-.59-.06-.91.86-1.52.32,0-.24.07-.51.11-.78a5,5,0,0,0-3.34,1c-1-2.16-3.44.23-4.56-2-.14.91-.22,1.46-.3,2A1.33,1.33,0,0,1,33.63,50.93Z" fill="none" stroke="#fff" stroke-linecap="round" stroke-linejoin="round" stroke-width="0.86"/><path d="M180.11,67.38c-.14.79.74,1,.7,1.65.43,2-1.16,3.78-.61,5.89,3.31-1.71,3.63-2.75,2.35-7.17C181.77,67.56,181,67,180.11,67.38Z" fill="none" stroke="#fff" stroke-linecap="round" stroke-linejoin="round" stroke-width="0.86"/><path d="M14.93,55.27l1.07.12c.09.28.3.39.48.18s.14-.64-.19-.86a1.46,1.46,0,0,0-.16-.19l.15-.59h0c.6-.6.33-.93-.35-1.12a1,1,0,0,0-1.44,0C14.68,53.6,13.77,54.57,14.93,55.27Zm1-2.44.33,1.06h0c-.47,0-1,.24-1.32-.34C14.86,52.79,15.41,52.85,15.9,52.83Z" fill="none" stroke="#fff" stroke-linecap="round" stroke-linejoin="round" stroke-width="0.86"/><path d="M33.61,50.93v0l0,0h0Z" fill="none" stroke="#fff" stroke-linecap="round" stroke-linejoin="round" stroke-width="0.86"/><path d="M33.62,49.05c-.35-.08-.21-.71-.67-.64v3c.3-.22.49-.35.66-.49C33.62,50.31,33.62,49.68,33.62,49.05Z" fill="none" stroke="#fff" stroke-linecap="round" stroke-linejoin="round" stroke-width="0.86"/><polygon points="38.95 48.05 38.8 48.1 38.94 48.19 38.95 48.05" fill="none" stroke="#fff" stroke-linecap="round" stroke-linejoin="round" stroke-width="0.86"/><path d="M107.11,25.7v0l0,0Z" fill="none" stroke="#fff" stroke-linecap="round" stroke-linejoin="round" stroke-width="0.86"/><path d="M107.06,25.71h0C106.9,25.82,107,25.78,107.06,25.71Z" fill="none" stroke="#fff" stroke-linecap="round" stroke-linejoin="round" stroke-width="0.86"/><path d="M107,25.73l.09,0h0Z" fill="none" stroke="#fff" stroke-linecap="round" stroke-linejoin="round" stroke-width="0.86"/><path d="M107,25.73Z" fill="none" stroke="#fff" stroke-linecap="round" stroke-linejoin="round" stroke-width="0.86"/><path d="M26.5,133.3a29.4,29.4,0,1,1,41.57,0L47.29,154.08Z" fill="#fff"/><path d="M47.29,85.81a26.63,26.63,0,0,1,18.88,7.82h0a26.71,26.71,0,0,1,0,37.77L47.29,150.29,28.4,131.4a26.71,26.71,0,0,1,0-37.77h0a26.65,26.65,0,0,1,18.89-7.82m0-5.37A32.08,32.08,0,0,0,24.61,135.2l18.88,18.88,3.8,3.8,3.79-3.8L70,135.2A32.08,32.08,0,0,0,47.29,80.44Z" fill="#211e1e"/><path d="M60.07,96.74s-1.57,6.73-5.24,4.14a3.93,3.93,0,0,1,1.42-1.27,3,3,0,0,0-1.68.85C53.3,96.33,60.07,96.74,60.07,96.74Z" fill="#0edc79"/><path d="M53.11,98.61a2.42,2.42,0,0,1-.41-1.08,1.92,1.92,0,0,0,.13,1.16c-2.31-.31-.56-3.45-.56-3.45S55,97.45,53.11,98.61Z" fill="#0edc79"/><line x1="37.76" y1="105.94" x2="37.76" y2="105.94" fill="url(#Dégradé_sans_nom_2)"/><path d="M55.64,103.4c-2,.8-2.37,2.83-5.24,2.83-3.56,0-4.54-3.14-7.08-3.14-2.07,0-3.22,2.07-5.28,2.85a9.44,9.44,0,0,1,17.6-2.54Z" fill="url(#Dégradé_sans_nom_38)"/><path d="M56.72,107.79a9.46,9.46,0,0,1-1.09,4.4c-1.78-.85-2.92-2.48-4.83-2.48-2.54,0-3.49,3-7.06,3-3.07,0-3.27-2.33-5.69-3a10.08,10.08,0,0,1-.19-1.92,9.44,9.44,0,0,1,.18-1.85c2.06-.78,3.21-2.85,5.28-2.85,2.54,0,3.52,3.14,7.08,3.14,2.87,0,3.24-2,5.24-2.83A9.41,9.41,0,0,1,56.72,107.79Z" fill="url(#Dégradé_sans_nom_2-2)"/><path d="M30.8,120.65l-.08.06v1.41a.05.05,0,0,1-.06.06h-.12a.06.06,0,0,1-.06-.06v-.64h-.69v.64a.05.05,0,0,1-.06.06h-.12a.06.06,0,0,1-.06-.06v-1.41l-.08-.06v-.05a0,0,0,0,1,.05,0h.21s.06,0,.06,0v.64h.69v-.64a.06.06,0,0,1,.06,0h.21a0,0,0,0,1,.05,0Z"/><path d="M33.4,121.6a.61.61,0,1,1,.61.61A.61.61,0,0,1,33.4,121.6Zm1,0a.38.38,0,1,0-.76,0,.38.38,0,0,0,.76,0Z"/><path d="M37.94,122v.12a.06.06,0,0,1,0,.06h-.1a.48.48,0,0,1-.45-.52v-.47h-.2a0,0,0,0,1,0,0v-.12s0-.06,0-.06h.2v-.38a.06.06,0,0,1,0-.06h.13a.06.06,0,0,1,0,.06V121h.25s0,0,0,.06v.12a0,0,0,0,1,0,0h-.25v.45c0,.19.1.31.23.31h.07A.05.05,0,0,1,37.94,122Z"/><path d="M40.47,121.6A.58.58,0,0,1,41,121a.54.54,0,0,1,.54.49.86.86,0,0,1,0,.16s0,0,0,0h-.8a.34.34,0,0,0,.32.3.45.45,0,0,0,.31-.13l.05,0,0,0,.08.09a.06.06,0,0,1,0,0s0,0,0,0a.58.58,0,0,1-.47.21A.59.59,0,0,1,40.47,121.6Zm.87-.15a.32.32,0,0,0-.32-.24.34.34,0,0,0-.3.24Z"/><path d="M44.52,122.08v0a.06.06,0,0,1-.06.06h-.21a.06.06,0,0,1-.06-.06v-1.41l-.08-.06v-.05a0,0,0,0,1,0,0h.21s.06,0,.06,0V122Z"/><path d="M47.12,122.11a.09.09,0,0,1,0-.06v-.18h0a0,0,0,0,1,0,0h0l.07.12a.71.71,0,0,0,.23.07c.18,0,.28-.07.28-.16s-.15-.14-.28-.18-.39-.15-.39-.36.17-.33.43-.33a.75.75,0,0,1,.35.09.07.07,0,0,1,0,.06v.17s0,0,0,0h0l-.08-.11h0a.55.55,0,0,0-.24,0c-.1,0-.16,0-.16.11s.07.11.25.17.42.1.42.38-.21.37-.51.37A.67.67,0,0,1,47.12,122.11Z"/><path d="M35.47,112.41a1.44,1.44,0,0,0-.54,0s0-.05,0-.07a1.84,1.84,0,0,0-2.26-1.13,4.09,4.09,0,0,0-2.09.94,5,5,0,0,0-1.62,3.3,3.71,3.71,0,0,0,.43,2.14,3.18,3.18,0,0,0,1.46,1.44,3.91,3.91,0,0,0,2,.39,4.17,4.17,0,0,0,2.31-1,4.52,4.52,0,0,0,1.33-1.88,3.77,3.77,0,0,0-.11-3.41A1.61,1.61,0,0,0,35.47,112.41Zm.42,2.58a4.37,4.37,0,0,1-2.33,3.56,2.62,2.62,0,0,1-1.93.16,2.1,2.1,0,0,1-1.12-.92A2.31,2.31,0,0,1,30,116.6a5.61,5.61,0,0,1,0-1.41,4.65,4.65,0,0,1,.92-2.1,3.16,3.16,0,0,1,2.1-1.29,1,1,0,0,1,.7.08c.06.05.11.15.16.39a1,1,0,0,1-.11.54c-.11.25-.07.34.2.46a.68.68,0,0,0,.68-.12.89.89,0,0,0,.22-.43,1.93,1.93,0,0,1,.24.13A2.76,2.76,0,0,1,35.89,115Z"/><path d="M40.78,114.49c.21,0,.47-.14.48-.22s-.08-.19-.28-.27a1.31,1.31,0,0,0-.64,0,2.51,2.51,0,0,0-1.41.82l0,0a.25.25,0,0,0,0-.08v0c.06-.28-.08-.43-.44-.48h0c-.5-.08-.45.24-.48.36-.17.72-.3,1.47-.45,2.16s-.26,1.28-.38,1.94c-.07.36,0,.5.34.52h0c.35,0,.67-.11.69-.34a6.87,6.87,0,0,1,.18-1.08,5.5,5.5,0,0,1,.34-1.21,3.21,3.21,0,0,1,2.1-2.08Z"/><path d="M65.49,117.26h0c-.14-.15-.4-.08-.59.21a4,4,0,0,1-.55.67c-.18.2-.55.45-.76.37s-.17-.3-.18-.51a6.15,6.15,0,0,1,.37-1.61c.06-.31,0-.42-.37-.5a.44.44,0,0,0-.61.33,6.66,6.66,0,0,1-1,2c-.19.22-.29.35-.46.41s-.09,0-.23-.1-.16-.59-.2-1a4.26,4.26,0,0,1,.91-2.47c.54-.63.76-.69,1.11-.31.12.12.08.28.1.41s.25.34.52.31.36-.14.36-.37A1.42,1.42,0,0,0,62.73,114h0a1.31,1.31,0,0,0-1,.17,3.51,3.51,0,0,0-1.19,1.35,4.74,4.74,0,0,0-.59,1.82h0a3.81,3.81,0,0,1-1.33,1.09c-.74.38-1.31.4-1.61,0a1.5,1.5,0,0,1-.32-1,2.32,2.32,0,0,1,.08-.66c0-.1.31,0,.59-.07,1.22-.13,2.18-1.2,2-2.16a1.18,1.18,0,0,0-1.66-.62,2.86,2.86,0,0,0-.78.55,4.6,4.6,0,0,0-1.17,2.4,1.56,1.56,0,0,0,0,.35h0a5.28,5.28,0,0,1-1.31.87s0,0,0,0c0-.24.1-.68.15-.89s.19-.93.23-1.14,0-.34-.35-.42a.46.46,0,0,0-.55.22c-.23.36-.52,1.18-.74,1.44-.28.42-.49.6-.78.64s-.27,0-.33-.15a1.69,1.69,0,0,1,0-1.13,2.89,2.89,0,0,1,1.24-2c.43-.24.57-.22.82.06l.11.21a.33.33,0,0,0,.41.16c.23-.07.32-.15.32-.28,0-.33-.26-.58-.71-.75a1.74,1.74,0,0,0-1.32,0A3.78,3.78,0,0,0,51,117.22a3.08,3.08,0,0,0,0,.43,2.52,2.52,0,0,1-1,.91c-.22.09-.31,0-.37-.14a1.85,1.85,0,0,1,0-1c.19-.78.4-1.52.58-2.27a.9.9,0,0,0-.4-.92,1.21,1.21,0,0,0-1.12-.12,3.71,3.71,0,0,0-1.24.76,3.52,3.52,0,0,0-.38.42l.13-.63c.07-.29,0-.41-.36-.49h0a.44.44,0,0,0-.57.37c-.15.71-.32,1.43-.46,2.12l-.15.71,0,0a4,4,0,0,1-.55.67c-.18.2-.55.45-.76.37s-.17-.3-.18-.51a6.15,6.15,0,0,1,.37-1.61c.06-.31,0-.42-.37-.5a.44.44,0,0,0-.61.33,6.66,6.66,0,0,1-1,2c-.19.22-.29.35-.46.41s-.09,0-.22-.1-.17-.59-.21-1a4.26,4.26,0,0,1,.91-2.47c.54-.63.76-.69,1.11-.31.12.12.09.28.1.41s.25.34.52.31.36-.14.36-.37A1.42,1.42,0,0,0,43.44,114h0a1.31,1.31,0,0,0-1,.17,3.51,3.51,0,0,0-1.19,1.35,3.85,3.85,0,0,0-.56,2.48,1.48,1.48,0,0,0,2.61.67h0l.12-.11a1.34,1.34,0,0,0,2,.19l0-.05a.54.54,0,0,0,.4.27h0a.4.4,0,0,0,.54-.33,9.29,9.29,0,0,1,1.5-3,2.86,2.86,0,0,1,1.22-1c.18-.08.22-.06.15.22s-.11.42-.15.61a21.3,21.3,0,0,0-.53,2.24,1.38,1.38,0,0,0,.11.75,1.47,1.47,0,0,0,1.62.6,2.75,2.75,0,0,0,1.08-.71,1.9,1.9,0,0,0,1.14.15,2.71,2.71,0,0,0,.87-.37c0,.24,0,.47-.2.58a13.47,13.47,0,0,0-1.7,1.08c-.4.39-.81.76-.81,1.32a1.32,1.32,0,0,0,0,.2c0,.56,1.09,1.14,1.76,1a1.58,1.58,0,0,0,1.24-1.13,9.65,9.65,0,0,0,.44-1.85.43.43,0,0,1,.3-.43,13.68,13.68,0,0,0,1.31-.77c.24.84,1.33,1.26,2.6,1a3.72,3.72,0,0,0,1.72-.85,1.48,1.48,0,0,0,2.51.34h0l.11-.11a1.36,1.36,0,0,0,2,.19,4.29,4.29,0,0,0,.9-1.05C65.67,117.56,65.65,117.46,65.49,117.26Zm-8.61-1a3.87,3.87,0,0,1,.57-1.15,2,2,0,0,1,.62-.57c.21-.12.24-.13.33-.08a.63.63,0,0,1,.06.34,1.89,1.89,0,0,1-.44.86,2.18,2.18,0,0,1-1,.59c-.09,0-.13,0-.13,0S56.88,116.34,56.88,116.31Zm-4.22,5a2.6,2.6,0,0,1-.2.28c-.23.24-.31.26-.47.2a.64.64,0,0,1-.41-.58,1.65,1.65,0,0,1,.78-1.21,6,6,0,0,1,.78-.43A6.18,6.18,0,0,1,52.66,121.36Z"/></g></g></g></svg>