<svg xmlns="http://www.w3.org/2000/svg" viewBox="0 0 72.31 20.18"><title>nb-communication</title><g id="Calque_2" data-name="Calque 2"><g id="Body_6_Contact_" data-name="Body 6 (Contact)"><path d="M11.31,3.57a4.54,4.54,0,0,1,1.06,1.57c-.36.33-.72.63-1,1s-.57.69-.86,1A3,3,0,0,1,11.31,3.57Z" fill="#fff" fill-rule="evenodd"/><path d="M17.15,12.62c.41-.31.82-.6,1.21-.93A5.26,5.26,0,0,0,20.19,9s0,0,0-.05c.13-.59.13-.61-.39-.95a5.92,5.92,0,0,0-3.18-1A5.5,5.5,0,0,0,13.46,8a9.78,9.78,0,0,0-2.26,2.37.46.46,0,0,1-.22.19l.06-.34a6.05,6.05,0,0,1,2.7-3.92,5.54,5.54,0,0,1,4.1-.63,10.35,10.35,0,0,1,3.52,1.4c.66.44.74.61.56,1.36a5.3,5.3,0,0,1-4,4l-.78.21Z" fill="#fff" fill-rule="evenodd"/><path d="M4.7,13.33c-.16.65-.35,1.29-.46,1.95a4.53,4.53,0,0,0,.46,3.08.42.42,0,0,0,.43.26A5.79,5.79,0,0,0,9,17.28a5.5,5.5,0,0,0,1.64-3,9,9,0,0,0,.18-2.54v-.27a.19.19,0,0,1,0-.07l.09,0c.18.5.39,1,.53,1.51a5.2,5.2,0,0,1-.76,4.62,5.43,5.43,0,0,1-2.22,1.74,8.92,8.92,0,0,1-3.95.82A.71.71,0,0,1,4,19.78a4.54,4.54,0,0,1-.14-5.28c.25-.43.57-.81.85-1.22Z" fill="#fff" fill-rule="evenodd"/><path d="M10.62,11.13a8.1,8.1,0,0,1-2,1.39A5.53,5.53,0,0,1,1.9,11.2,8.86,8.86,0,0,1,.05,8a.73.73,0,0,1,.17-.79A4.86,4.86,0,0,1,3.45,5.47a5.08,5.08,0,0,1,2.09.17,7.39,7.39,0,0,1,1.16.43c-.53,0-1.07,0-1.6.09A5.35,5.35,0,0,0,1.87,7.5a.52.52,0,0,0-.15.67A5.66,5.66,0,0,0,4,11.11a5.81,5.81,0,0,0,3.65.74,10,10,0,0,0,2.75-.66Z" fill="#fff" fill-rule="evenodd"/><path d="M11.2,17.29l.82.53a6.2,6.2,0,0,0,2.74,1,6.56,6.56,0,0,0,1.4-.05.41.41,0,0,0,.3-.24,5,5,0,0,0-.68-5,7,7,0,0,0-3.44-2.19c-.38-.13-.77-.23-1.15-.35V11c.37,0,.74-.08,1.11-.09a6.41,6.41,0,0,1,3.57,1,5,5,0,0,1,2.25,3.43,8.32,8.32,0,0,1-.3,4.11.81.81,0,0,1-.65.59,4.93,4.93,0,0,1-5.08-1.47c-.35-.37-.65-.78-1-1.17Z" fill="#fff" fill-rule="evenodd"/><path d="M10.63,10.74a6.36,6.36,0,0,1-2.2-1.57A5,5,0,0,1,7.05,5.32,6,6,0,0,1,8.29,2.24,9.16,9.16,0,0,1,10.46.15a.77.77,0,0,1,.73-.1,4.63,4.63,0,0,1,3.23,3.88,14.55,14.55,0,0,1,.09,1.75h-.09c-.14-.38-.27-.77-.43-1.14A5.84,5.84,0,0,0,12.08,2c-.81-.59-.9-.6-1.66,0A4.79,4.79,0,0,0,8.48,6.19,7,7,0,0,0,10,10Z" fill="#fff" fill-rule="evenodd"/><path d="M29,9.75V16.2c-2.18-2.95-2.15-6.29-2-9.74a4.24,4.24,0,0,1,3.08,1.1A6.77,6.77,0,0,1,31.24,9c1.07,1.72,2.09,3.46,3.16,5.18a1,1,0,0,0,.67.38c.93,0,1.87,0,2.8,0a1.27,1.27,0,0,0,1.42-1.25c.05-.68-.35-1.12-1.18-1.25a7.46,7.46,0,0,0-1-.06h-1V10.41c.63,0,1.26-.07,1.88-.14s1-.41,1-1-.28-.92-1-1c-1-.06-1.94,0-3,0v5.32c-1.1-1-2.25-5.11-2-7.14h3.92a16.08,16.08,0,0,1,2,.1,2.33,2.33,0,0,1,2.07,1.74,2.39,2.39,0,0,1-1,2.76A2.35,2.35,0,0,1,41.48,13a3,3,0,0,1-.6,2.2A3.44,3.44,0,0,1,38,16.38c-1.48,0-3,0-4.45,0a1,1,0,0,1-.69-.47C31.63,14,30.48,12,29.32,10.06a4,4,0,0,0-.22-.34Z" fill="#fff" fill-rule="evenodd"/><path d="M70.23,16.19V10l-.15,0-1.2,3.31c-.3.85-.62,1.7-.9,2.55a.59.59,0,0,1-.68.47c-1.19,0-1.19,0-1.58-1.06q-.85-2.34-1.69-4.68a.91.91,0,0,0-.33-.48v6.09a1.84,1.84,0,0,1-2.08-1.68c0-1.75,0-3.49,0-5.24A3,3,0,0,1,64.44,6.6c.14,0,.35.25.41.42.63,1.75,1.24,3.51,1.86,5.27.08.25.19.49.33.83.67-2,1.34-4,1.95-5.93.16-.51.34-.68.93-.52A3,3,0,0,1,72.31,9.6c0,1.56,0,3.13,0,4.69A1.92,1.92,0,0,1,70.23,16.19Z" fill="#fff" fill-rule="evenodd"/><path d="M56.31,16.45a4.65,4.65,0,0,1-4.89-4.72,5.2,5.2,0,0,1,1.32-3.92,4.89,4.89,0,0,1,5.18-1.2,4.24,4.24,0,0,1,3.15,3.72,6.9,6.9,0,0,1-.09,2.6A4.43,4.43,0,0,1,56.31,16.45ZM59,11.29a13.11,13.11,0,0,0-.43-1.65A2.3,2.3,0,0,0,56.3,8.18,2.36,2.36,0,0,0,54,9.75a4.42,4.42,0,0,0-.12,3.06,2.58,2.58,0,0,0,5-.12A13.8,13.8,0,0,0,59,11.29Z" fill="#fff" fill-rule="evenodd"/><path d="M49.86,9.88a2.36,2.36,0,0,0-2.45-1.69,2.53,2.53,0,0,0-2.33,2.31,7.23,7.23,0,0,0,.16,2.41,2.27,2.27,0,0,0,2.47,1.7c1.12,0,1.73-.54,2.09-1.77a2.48,2.48,0,0,1,.13-.35,1.51,1.51,0,0,1,1.42,1A1.47,1.47,0,0,1,51,15.07a4.62,4.62,0,0,1-4.77,1.22,4.24,4.24,0,0,1-3.3-3.39,5.27,5.27,0,0,1,1.44-5.38,5.13,5.13,0,0,1,6.21-.22,1.37,1.37,0,0,1,.62,1.5C51,9.42,50.7,9.7,49.86,9.88Z" fill="#fff" fill-rule="evenodd"/><path d="M8.86,14.27A3.2,3.2,0,0,1,6,16.85a5.44,5.44,0,0,1,.12-1.93.19.19,0,0,1,.14-.12A8.07,8.07,0,0,0,8.86,14.27Z" fill="#fff" fill-rule="evenodd"/><path d="M3.67,8.28a4.21,4.21,0,0,1,1.84-.46.21.21,0,0,1,.18.11c.19.39.35.8.57,1.17s.48.71.72,1.06A3.2,3.2,0,0,1,3.67,8.28Z" fill="#fff" fill-rule="evenodd"/><path d="M14.45,9.44a3.35,3.35,0,0,1,3.86-.33,4.48,4.48,0,0,1-1.17,1.39.26.26,0,0,1-.21,0A9,9,0,0,0,14.45,9.44Z" fill="#fff" fill-rule="evenodd"/><path d="M13.51,13.81A3.16,3.16,0,0,1,15,17.19a4.24,4.24,0,0,1-1.79-.62C13.32,15.62,13.42,14.72,13.51,13.81Z" fill="#fff" fill-rule="evenodd"/></g></g></svg>