<?xml version="1.0" encoding="utf-8"?>
<!-- Generator: Adobe Illustrator 22.1.0, SVG Export Plug-In . SVG Version: 6.00 Build 0)  -->
<svg version="1.1" id="Calque_1" xmlns="http://www.w3.org/2000/svg" xmlns:xlink="http://www.w3.org/1999/xlink" x="0px" y="0px"
	 viewBox="0 0 362.5 125.6" style="enable-background:new 0 0 362.5 125.6;" xml:space="preserve">
<style type="text/css">
	.st0{fill:#FFFFFF;}
</style>
<title>orangea-hotels</title>
<g id="Layer_2">
	<g id="Body_1">
		<g id="Text">
			<path class="st0" d="M39.6,67.6v39.3h-9.1V90.8H12.6v16.1H3.5V67.6h9.1v15.5h17.9V67.6H39.6z"/>
			<path class="st0" d="M54.1,105.4c-2.4-1.2-4.5-3.2-5.9-5.5c-2.8-5-2.8-11.1,0-16.1c1.4-2.4,3.5-4.3,5.9-5.5
				c5.4-2.7,11.7-2.7,17.1,0c2.4,1.3,4.5,3.2,5.9,5.5c2.9,5,2.9,11.1,0,16.1c-1.4,2.4-3.5,4.3-5.9,5.5c-2.6,1.4-5.6,2-8.5,2
				C59.7,107.5,56.8,106.8,54.1,105.4z M68.2,97.9c1.5-1.7,2.2-3.9,2.1-6.1c0.1-2.2-0.6-4.4-2.1-6.1c-1.4-1.5-3.4-2.3-5.5-2.3
				c-2.1-0.1-4.1,0.8-5.6,2.3c-1.5,1.7-2.3,3.9-2.2,6.1c-0.1,2.2,0.7,4.4,2.2,6.1c1.4,1.5,3.5,2.3,5.6,2.3
				C64.8,100.2,66.8,99.4,68.2,97.9z"/>
			<path class="st0" d="M104.6,105.5c-1,0.7-2,1.2-3.2,1.4c-1.3,0.3-2.6,0.5-4,0.5c-3.6,0-6.4-0.9-8.3-2.8c-2-1.8-3-4.5-2.9-8.1
				V84.1h-4.7v-6.7h4.7V70h8.8v7.4h7.5v6.7h-7.5v12.3c-0.1,1.1,0.3,2.1,1,2.9c0.7,0.7,1.8,1.1,2.8,1c1.3,0,2.5-0.4,3.6-1.1
				L104.6,105.5z"/>
			<path class="st0" d="M138,94.3h-22.9c0.4,1.8,1.4,3.4,2.9,4.4c1.7,1.1,3.7,1.7,5.7,1.6c1.4,0,2.8-0.2,4.2-0.7
				c1.3-0.5,2.4-1.3,3.4-2.2l4.7,5.1c-2.8,3.3-7,4.9-12.5,4.9c-3.1,0.1-6.2-0.6-9-2c-2.5-1.2-4.6-3.1-6.1-5.5
				c-1.4-2.4-2.2-5.2-2.1-8c0-2.8,0.7-5.6,2.1-8c1.4-2.4,3.4-4.3,5.8-5.6c5.1-2.6,11.1-2.7,16.3-0.1c2.4,1.2,4.4,3.1,5.7,5.5
				c1.4,2.5,2.1,5.4,2,8.3C138.2,92.1,138.1,92.8,138,94.3z M117.5,84.6c-1.4,1.2-2.3,2.8-2.5,4.6h14.9c-0.2-1.8-1.1-3.4-2.5-4.6
				c-1.4-1.2-3.2-1.8-5-1.7C120.7,82.8,118.9,83.4,117.5,84.6z"/>
			<path class="st0" d="M144,65.2h8.8v41.7H144V65.2z"/>
			<path class="st0" d="M163.8,106.4c-2-0.5-4-1.3-5.7-2.3l2.9-6.3c1.5,0.9,3.2,1.7,4.9,2.1c1.8,0.5,3.7,0.8,5.6,0.8
				c3.7,0,5.6-0.9,5.6-2.8c0-0.9-0.6-1.7-1.5-1.9c-1.5-0.5-3.1-0.8-4.7-1c-2.1-0.3-4.1-0.7-6.1-1.3c-1.6-0.5-3-1.4-4.2-2.6
				c-1.2-1.2-1.8-3-1.8-5.3c0-1.8,0.6-3.6,1.7-5.1c1.3-1.6,2.9-2.8,4.8-3.5c2.4-0.9,5-1.3,7.5-1.2c2.2,0,4.3,0.2,6.4,0.7
				c1.8,0.4,3.6,1,5.3,1.9l-2.9,6.2c-2.7-1.5-5.7-2.3-8.7-2.2c-1.4-0.1-2.9,0.2-4.2,0.8c-0.8,0.3-1.4,1.1-1.4,2c0,0.9,0.6,1.7,1.5,2
				c1.6,0.5,3.2,0.9,4.8,1.1c2,0.3,4.1,0.8,6.1,1.3c1.6,0.5,3,1.3,4.1,2.6c1.2,1.4,1.9,3.3,1.7,5.2c0,1.8-0.6,3.6-1.7,5
				c-1.3,1.6-3,2.8-4.9,3.4c-2.5,0.9-5.1,1.3-7.7,1.2C168.6,107.4,166.2,107.1,163.8,106.4z"/>
			<path class="st0" d="M23.8,56.2C20.7,54.6,18,52,16.1,49c-1.9-3.2-2.8-6.8-2.8-10.4c0-3.7,0.9-7.3,2.8-10.4
				c1.8-3.1,4.5-5.6,7.7-7.3c3.4-1.8,7.2-2.7,11-2.6c3.8-0.1,7.6,0.8,11,2.6c6.6,3.5,10.6,10.3,10.5,17.7c0,3.7-0.9,7.3-2.8,10.4
				c-1.9,3.1-4.5,5.6-7.7,7.3c-3.4,1.8-7.2,2.7-11,2.6C31,58.9,27.2,58,23.8,56.2z M41.2,49.5c1.9-1.1,3.4-2.6,4.4-4.5
				c1.1-2,1.6-4.2,1.6-6.5c0-2.3-0.5-4.5-1.6-6.5c-1-1.9-2.6-3.4-4.4-4.5c-1.9-1.1-4.1-1.6-6.3-1.6c-2.2,0-4.4,0.5-6.3,1.6
				c-1.9,1-3.4,2.6-4.4,4.5c-1.1,2-1.6,4.2-1.6,6.5c0,2.3,0.5,4.5,1.6,6.5c1,1.9,2.6,3.4,4.4,4.5c1.9,1.1,4.1,1.6,6.3,1.6
				C37.1,51.2,39.2,50.6,41.2,49.5z"/>
			<path class="st0" d="M75.3,28.6c2-0.8,4-1.2,6.2-1.1v8.1c-1-0.1-1.6-0.1-2-0.1c-2.5,0-4.5,0.7-5.9,2.1c-1.4,1.4-2.1,3.6-2.1,6.3
				v14.3h-8.8V28H71v4C72.1,30.5,73.5,29.3,75.3,28.6z"/>
			<path class="st0" d="M109.5,30.9c2.5,2.2,3.8,5.6,3.8,10.1v17.3H105v-3.8c-1.6,2.8-4.7,4.2-9.2,4.2c-2.1,0.1-4.1-0.4-6-1.2
				c-1.6-0.7-2.9-1.8-3.9-3.3c-0.9-1.4-1.4-3.1-1.3-4.7c-0.1-2.6,1.1-5.1,3.2-6.6c2.1-1.6,5.4-2.4,9.8-2.4h7
				c0.1-1.7-0.5-3.3-1.7-4.4c-1.2-1-2.9-1.5-5.2-1.5c-1.6,0-3.2,0.3-4.7,0.8c-1.4,0.4-2.8,1.1-4,2.1l-3.1-6.1c1.8-1.2,3.9-2.1,6-2.7
				c2.3-0.6,4.7-1,7.1-1C103.4,27.5,106.9,28.6,109.5,30.9z M102,51.7c1.2-0.7,2-1.8,2.5-3.1v-3.1h-6c-3.6,0-5.4,1.2-5.4,3.6
				c0,1.1,0.5,2.1,1.3,2.7c1.1,0.7,2.3,1,3.6,1C99.4,52.8,100.8,52.4,102,51.7z"/>
			<path class="st0" d="M148.6,30.9c2.3,2.2,3.5,5.6,3.5,10v17.3h-8.8v-16c0-2.4-0.5-4.2-1.6-5.4c-1.2-1.2-2.8-1.9-4.6-1.8
				c-2-0.1-3.9,0.7-5.3,2.1c-1.3,1.4-2,3.4-2,6.1v14.9h-8.8V28h8.4v3.6c1.2-1.3,2.7-2.3,4.3-2.9c1.8-0.7,3.7-1.1,5.7-1
				C143.3,27.5,146.3,28.6,148.6,30.9z"/>
			<path class="st0" d="M191.5,28v25.2c0,5.5-1.4,9.7-4.3,12.4c-2.9,2.7-7.1,4-12.6,4c-2.8,0-5.6-0.3-8.3-1.1
				c-2.4-0.6-4.6-1.6-6.5-3.1l3.5-6.3c1.4,1.1,3.1,2,4.8,2.5c1.9,0.6,3.9,0.9,5.8,0.9c3,0,5.3-0.7,6.7-2.1c1.4-1.4,2.1-3.4,2.1-6.2
				V53c-2.3,2.5-5.5,3.8-9.6,3.8c-2.6,0-5.3-0.6-7.6-1.8c-2.3-1.2-4.2-3-5.5-5.1c-1.4-2.3-2.1-5-2-7.6c-0.1-2.7,0.6-5.3,2-7.6
				c1.3-2.2,3.2-4,5.5-5.1c2.3-1.2,5-1.9,7.6-1.8c4.4,0,7.7,1.4,10,4.3V28H191.5z M180.6,47.5c1.5-1.4,2.3-3.3,2.2-5.4
				c0.1-2-0.7-4-2.2-5.4c-3.3-2.7-8.1-2.7-11.4,0c-1.5,1.4-2.3,3.3-2.3,5.4c-0.1,2,0.8,4,2.3,5.4C172.5,50.2,177.3,50.2,180.6,47.5z
				"/>
			<path class="st0" d="M229.1,45.6h-22.9c0.4,1.8,1.4,3.4,2.9,4.4c1.7,1.1,3.7,1.7,5.7,1.6c1.4,0,2.8-0.2,4.2-0.7
				c1.3-0.5,2.4-1.2,3.4-2.2l4.7,5.1c-2.8,3.3-7,4.9-12.5,4.9c-3.1,0.1-6.2-0.6-9-2c-2.5-1.2-4.6-3.2-6-5.6c-1.4-2.4-2.2-5.2-2.1-8
				c0-2.8,0.7-5.6,2.1-8c1.4-2.4,3.4-4.3,5.8-5.6c5.1-2.6,11.1-2.6,16.2-0.1c2.4,1.3,4.3,3.2,5.6,5.5c1.4,2.5,2.1,5.4,2,8.3
				C229.2,43.3,229.2,44.1,229.1,45.6z M208.6,35.8c-1.4,1.2-2.3,2.8-2.5,4.6H221c-0.2-1.8-1.1-3.4-2.5-4.6c-1.4-1.2-3.2-1.8-5-1.7
				C211.8,34.1,210,34.7,208.6,35.8z"/>
			<path class="st0" d="M257.2,30.9c2.5,2.2,3.8,5.6,3.8,10.1v17.3h-8.2v-3.8c-1.7,2.8-4.7,4.3-9.2,4.3c-2.1,0.1-4.1-0.4-6-1.2
				c-1.6-0.7-2.9-1.8-3.9-3.3c-0.9-1.4-1.4-3.1-1.3-4.7c-0.1-2.6,1.1-5.1,3.2-6.6c2.1-1.6,5.4-2.4,9.8-2.4h7
				c0.1-1.7-0.5-3.3-1.7-4.4c-1.2-1-2.9-1.5-5.2-1.5c-1.6,0-3.2,0.2-4.8,0.7c-1.4,0.4-2.8,1.1-4,2.1l-3.1-6.1
				c1.8-1.2,3.8-2.1,5.9-2.7c2.3-0.6,4.7-1,7.1-1C251.1,27.5,254.7,28.6,257.2,30.9z M249.8,51.7c1.2-0.7,2-1.8,2.5-3.1v-3.1h-6
				c-3.6,0-5.4,1.2-5.4,3.6c0,1.1,0.5,2.1,1.3,2.7c1.1,0.7,2.3,1.1,3.6,1C247.2,52.8,248.6,52.4,249.8,51.7z"/>
		</g>
	</g>
</g>
</svg>
