 <svg xmlns="http://www.w3.org/2000/svg" xmlns:xlink="http://www.w3.org/1999/xlink"
                         viewBox="0 0 569.16 585.51">
  <defs>
	<clipPath id="clip-path" transform="translate(0 0)">
	  <rect x="283.72" y="382.75" width="285.44" height="133.82" fill="#f28d23"/>
	</clipPath>
	<clipPath id="clip-path-2" transform="translate(0 0)">
	  <rect x="82.17" y="381.85" width="190.56" height="174.1" fill="none"/>
	</clipPath>
	<clipPath id="clip-path-3" transform="translate(0 0)">
	  <rect x="292.7" y="4.56" width="190.56" height="173.3" fill="none"/>
	</clipPath>
	<clipPath id="clip-path-4" transform="translate(0 0)">
	  <rect x="82.17" y="183.69" width="401.09" height="190.56" fill="none"/>
	</clipPath>
	<clipPath id="clip-path-5" transform="translate(0 0)">
	  <rect y="44.04" width="285.44" height="133.82" fill="#f28d23"/>
	</clipPath>
  </defs>
  <title>resort</title>
  <g id="__slider_resort" data-name="Calque 2">
	<g id="Body_3_Resort_" data-name="Body 3 (Resort)">
	  <g id="Gallery_1_Resort_" data-name="Gallery 1 (Resort)">
		<rect x="283.72" y="382.75" width="285.44" height="133.82" fill="#f28d23"/>
		<g clip-path="url(#clip-path)">
		  <path
			  d="M264.13,514q-9.85-3.28-15.39-8.3l4-6.92A45.57,45.57,0,0,0,267,506.54a53.78,53.78,0,0,0,18.24,3.11q13.66,0,20.15-4.49a14.34,14.34,0,0,0,6.48-12.45,11.65,11.65,0,0,0-3.54-9,21.84,21.84,0,0,0-8.74-4.84,145.75,145.75,0,0,0-14.35-3.29,119.78,119.78,0,0,1-17.29-4.15,27.13,27.13,0,0,1-11.24-7.26q-4.66-5-4.67-13.83,0-10.73,8.91-17.73t25.33-7A62.21,62.21,0,0,1,303.38,428a43,43,0,0,1,13.83,6.4l-4,6.91a41.45,41.45,0,0,0-12.62-6.05,51.58,51.58,0,0,0-14.52-2.07q-12.63,0-19,4.67a14.48,14.48,0,0,0-6.4,12.27q0,6.06,3.63,9.43a22.86,22.86,0,0,0,8.91,5q5.27,1.65,14.78,3.55a127.26,127.26,0,0,1,17,4.06,26,26,0,0,1,11,7q4.5,4.84,4.5,13.32,0,11.23-9.34,18t-26.28,6.74A65.15,65.15,0,0,1,264.13,514Z"
			  transform="translate(0 0)" fill="#fff"/>
		  <path
			  d="M356.89,511.38A42.16,42.16,0,0,1,340.73,495a50.3,50.3,0,0,1,0-47.2,42.29,42.29,0,0,1,16.16-16.34,48.26,48.26,0,0,1,46.17,0,42.39,42.39,0,0,1,16.17,16.34,50.3,50.3,0,0,1,0,47.2,42.25,42.25,0,0,1-16.17,16.34,48.26,48.26,0,0,1-46.17,0Zm41.68-6.74a34.76,34.76,0,0,0,13-13.49,43.19,43.19,0,0,0,0-39.42,34.83,34.83,0,0,0-13-13.49,38.12,38.12,0,0,0-37.18,0,34.78,34.78,0,0,0-13,13.49,43.27,43.27,0,0,0,0,39.42,34.72,34.72,0,0,0,13,13.49,38.12,38.12,0,0,0,37.18,0Z"
			  transform="translate(0 0)" fill="#fff"/>
		  <path
			  d="M473.18,430.89q8.81-5.26,21.44-5.27v8.47l-2.08-.17q-15,0-23.51,9.42t-8.48,26.2v47h-8.64V426.31h8.3V446A31.22,31.22,0,0,1,473.18,430.89Z"
			  transform="translate(0 0)" fill="#fff"/>
		  <path
			  d="M567.41,510.86a21.63,21.63,0,0,1-8.21,4.76,32.51,32.51,0,0,1-10.29,1.64q-11.76,0-18.16-6.48t-6.39-18.07v-59h-16.6v-7.44h16.6V406.6H533v19.71h28.71v7.44H533v58.09q0,8.82,4.24,13.4t12.53,4.59q8.47,0,14-5Z"
			  transform="translate(0 0)" fill="#fff"/>
		</g>
		<g clip-path="url(#clip-path-2)">
		  <image width="800" height="533" transform="translate(21.64 381.85) scale(0.38)"
				 xlink:href="img/SVG/links/3.jpg"/>
		</g>
		<g clip-path="url(#clip-path-3)">
		  <image width="1024" height="682" transform="translate(219.89 0) scale(0.27)"
				 xlink:href="img/SVG/links/1.jpg"/>
		</g>
		<g clip-path="url(#clip-path-4)">
		  <image width="800" height="533" transform="translate(76.64 110.95) scale(0.51)"
				 xlink:href="img/SVG/links/2.jpg"/>
		</g>
		<rect y="44.04" width="285.44" height="133.82" fill="#0ed08b"/>
		<rect y="44.04" width="285.44" height="133.82" fill="#f28d23"/>
		<g clip-path="url(#clip-path-5)">
		  <path
			  d="M105.13,180.94,76.25,140.48a87.64,87.64,0,0,1-11.75.87H29.91v39.59H21.09v-121H64.5q22.82,0,35.79,10.8t13,30q0,14.36-7.35,24.13t-21,13.74l30.26,42.36ZM64.5,133.57q19.36,0,29.56-8.56t10.21-24.3q0-15.72-10.21-24.29T64.5,67.86H29.91v65.71Z"
			  transform="translate(0 0)" fill="#fff"/>
		  <path
			  d="M219.08,137.89H141.44a37.73,37.73,0,0,0,5.36,18.76,34.3,34.3,0,0,0,13.57,12.71,40.79,40.79,0,0,0,19.28,4.49A41.34,41.34,0,0,0,196,170.66a31.93,31.93,0,0,0,12.54-9.43l5,5.71a38.39,38.39,0,0,1-14.78,10.89,51.44,51.44,0,0,1-43.31-2.07,42.6,42.6,0,0,1-16.52-16.26,46.71,46.71,0,0,1-6-23.69,49.07,49.07,0,0,1,5.62-23.6,41.42,41.42,0,0,1,15.47-16.34,44.7,44.7,0,0,1,44.18-.08A41.23,41.23,0,0,1,213.63,112a48.56,48.56,0,0,1,5.62,23.52Zm-60-36a32.15,32.15,0,0,0-12.19,11.93,38.79,38.79,0,0,0-5.28,17.38h69.17a36.32,36.32,0,0,0-5.19-17.3,33.58,33.58,0,0,0-29.4-16.25A34.49,34.49,0,0,0,159.08,101.84Z"
			  transform="translate(0 0)" fill="#fff"/>
		  <path
			  d="M248.12,178.35q-9.85-3.28-15.39-8.3l4-6.91A45.83,45.83,0,0,0,251,170.92,54,54,0,0,0,269.22,174q13.65,0,20.14-4.5a14.3,14.3,0,0,0,6.49-12.45,11.67,11.67,0,0,0-3.55-9,21.85,21.85,0,0,0-8.73-4.84q-5.19-1.56-14.35-3.29a118.46,118.46,0,0,1-17.29-4.15,26.93,26.93,0,0,1-11.24-7.26q-4.66-5-4.67-13.83Q236,104,244.92,97t25.34-7a62.14,62.14,0,0,1,17.11,2.42,43.09,43.09,0,0,1,13.84,6.4l-4,6.92a41.33,41.33,0,0,0-12.62-6,51.25,51.25,0,0,0-14.53-2.08q-12.61,0-19,4.67a14.51,14.51,0,0,0-6.39,12.28q0,6,3.63,9.42a22.7,22.7,0,0,0,8.9,5q5.28,1.65,14.79,3.55a128,128,0,0,1,17,4.06,26,26,0,0,1,11,7q4.49,4.83,4.49,13.31a21.11,21.11,0,0,1-9.33,18q-9.35,6.75-26.29,6.75A65.2,65.2,0,0,1,248.12,178.35Z"
			  transform="translate(0 0)" fill="#fff"/>
		</g>
	  </g>
	</g>
  </g>
</svg>