<svg xmlns="http://www.w3.org/2000/svg" xmlns:xlink="http://www.w3.org/1999/xlink" viewBox="0 0 115.49 116.72"><defs><clipPath id="clip-path" transform="translate(-3.81 -2.91)"><rect width="132" height="97.09" fill="none"/></clipPath></defs><title>tripadvisor</title><g id="Calque_2" data-name="Calque 2"><g id="Body_6_Contact_" data-name="Body 6 (Contact)"><g id="certificat_tripadvisor" data-name="certificat tripadvisor"><path d="M54.34,25.85v-.59l.4-.4,1-1.07a5.29,5.29,0,0,0,.6-.8,1.21,1.21,0,0,0,.18-.59.68.68,0,0,0-.23-.54.87.87,0,0,0-.62-.2,2.06,2.06,0,0,0-.95.28l-.27-.59A2.83,2.83,0,0,1,55.82,21a1.59,1.59,0,0,1,1.1.37,1.23,1.23,0,0,1,.43,1,1.82,1.82,0,0,1-.23.86,6.12,6.12,0,0,1-.82,1.08l-.47.5c-.14.15-.3.3-.48.46h2.09v.63Z" transform="translate(-3.81 -2.91)" fill="#fff"/><path d="M58.41,23.43a5,5,0,0,1,.08-1,2.23,2.23,0,0,1,.27-.75,1.32,1.32,0,0,1,.55-.52,1.62,1.62,0,0,1,.78-.2,1.68,1.68,0,0,1,.79.2,1.28,1.28,0,0,1,.55.53,3.49,3.49,0,0,1,.36,1.77,3.55,3.55,0,0,1-.36,1.77,1.34,1.34,0,0,1-.55.53,1.67,1.67,0,0,1-.79.19,1.6,1.6,0,0,1-.77-.19,1.36,1.36,0,0,1-.56-.53A3.58,3.58,0,0,1,58.41,23.43Zm1-1.31a3.12,3.12,0,0,0-.12.57,6,6,0,0,0,0,.74,4.36,4.36,0,0,0,.17,1.32.82.82,0,0,0,.28.41.71.71,0,0,0,.44.15.72.72,0,0,0,.45-.15.82.82,0,0,0,.28-.41A4.07,4.07,0,0,0,61,23.43a4.18,4.18,0,0,0-.17-1.33.71.71,0,0,0-.73-.53.77.77,0,0,0-.44.14A.82.82,0,0,0,59.37,22.12Z" transform="translate(-3.81 -2.91)" fill="#fff"/><path d="M62.41,22.06l1.3-1h.62v4.81h-.77V22l-.79.57Z" transform="translate(-3.81 -2.91)" fill="#fff"/><path d="M68.71,21.16l-.24.58a2.19,2.19,0,0,0-.77-.14,1.27,1.27,0,0,0-1,.43,1.75,1.75,0,0,0-.36,1.18,1.26,1.26,0,0,1,1.07-.49,1.46,1.46,0,0,1,1.07.43,1.58,1.58,0,0,1,.41,1.12,1.63,1.63,0,0,1-.45,1.19,1.56,1.56,0,0,1-1.16.45A1.53,1.53,0,0,1,66,25.33a2.62,2.62,0,0,1-.45-1.65,3.16,3.16,0,0,1,.56-2A1.87,1.87,0,0,1,67.66,21,3,3,0,0,1,68.71,21.16Zm-2.33,3.15v.08a.84.84,0,0,0,.25.63.87.87,0,0,0,.63.24.76.76,0,0,0,.6-.26,1.1,1.1,0,0,0,0-1.37.76.76,0,0,0-.6-.26.87.87,0,0,0-.64.26A1,1,0,0,0,66.38,24.31Z" transform="translate(-3.81 -2.91)" fill="#fff"/><path d="M41.32,36a3.08,3.08,0,0,1-3.27-.45,2.84,2.84,0,0,1,0-3.71,2.4,2.4,0,0,1,1.79-.68,4.72,4.72,0,0,1,1.52.29l.1,0,.33-1.09-.1,0a6,6,0,0,0-1-.28,4.86,4.86,0,0,0-1-.08A3.72,3.72,0,0,0,37,31a3.67,3.67,0,0,0-1,2.72A3.52,3.52,0,0,0,37,36.43a3.92,3.92,0,0,0,2.82,1,4.44,4.44,0,0,0,.92-.08,5.56,5.56,0,0,0,.92-.25l.1,0L41.42,36Z" transform="translate(-3.81 -2.91)" fill="#fff"/><polygon points="40.34 31.28 42.71 31.28 42.71 30.15 40.34 30.15 40.34 28.36 43.03 28.36 43.03 27.22 38.96 27.22 38.96 34.42 43.23 34.42 43.23 33.29 40.34 33.29 40.34 31.28" fill="#fff"/><path d="M52,34.25a2.06,2.06,0,0,0-.24-.34l-.07-.06a1.92,1.92,0,0,0,.78-.61,2,2,0,0,0-.15-2.45A2.07,2.07,0,0,0,51,30.15l-.64,0H48.16v7.21h1.36v-3h.53a.88.88,0,0,1,.58.19,1.33,1.33,0,0,1,.19.24c0,.06.1.18.22.42l1,2.11h1.47l-1.2-2.57C52.2,34.57,52.12,34.41,52,34.25Zm-2.51-3h.66c.85,0,1.26.32,1.26,1s-.42,1-1.3,1h-.62Z" transform="translate(-3.81 -2.91)" fill="#fff"/><polygon points="49.65 28.36 51.59 28.36 51.59 34.42 52.96 34.42 52.96 28.36 54.89 28.36 54.89 27.22 49.65 27.22 49.65 28.36" fill="#fff"/><rect x="55.58" y="27.22" width="1.37" height="7.2" fill="#fff"/><polygon points="58.45 34.42 59.82 34.42 59.82 31.27 62.09 31.27 62.09 30.14 59.82 30.14 59.82 28.36 62.39 28.36 62.39 27.22 58.45 27.22 58.45 34.42" fill="#fff"/><rect x="63.33" y="27.22" width="1.37" height="7.2" fill="#fff"/><path d="M75.16,36a3.12,3.12,0,0,1-3.28-.45,2.86,2.86,0,0,1,0-3.7,2.4,2.4,0,0,1,1.8-.69,4.61,4.61,0,0,1,1.51.29l.11,0,.33-1.09-.1,0a5.35,5.35,0,0,0-1-.28,4.86,4.86,0,0,0-1-.08,3.72,3.72,0,0,0-2.73,1,3.67,3.67,0,0,0-1,2.72,3.52,3.52,0,0,0,1.07,2.68,3.9,3.9,0,0,0,2.82,1,4.57,4.57,0,0,0,.92-.08,5.84,5.84,0,0,0,.92-.25l.1,0L75.26,36Z" transform="translate(-3.81 -2.91)" fill="#fff"/><path d="M80,30.12h-1.4l-2.9,7.21h1.42l.68-1.73h3l.65,1.72h1.48l-2.85-7.14Zm-.63,1.77,1,2.58H78.25l1-2.58a.77.77,0,0,0,.07-.16A1,1,0,0,0,79.4,31.89Z" transform="translate(-3.81 -2.91)" fill="#fff"/><polygon points="78.31 27.22 78.31 28.36 80.24 28.36 80.24 34.42 81.62 34.42 81.62 28.36 83.55 28.36 83.55 27.22 78.31 27.22" fill="#fff"/><polygon points="21.02 44.35 24.66 44.35 24.66 42.74 21.02 42.74 21.02 39.88 25.15 39.88 25.15 38.24 19.03 38.24 19.03 49.17 25.46 49.17 25.46 47.55 21.02 47.55 21.02 44.35" fill="#fff"/><path d="M39.72,41.14H37.48l-2.13,3.27a1.88,1.88,0,0,0-.28.51A.16.16,0,0,0,35,45a2.46,2.46,0,0,0-.27-.59l-2.16-3.28H30.32l3.45,5.14-3.88,5.8h2.27l2.47-3.75a2.46,2.46,0,0,0,.33-.71,2.72,2.72,0,0,0,.32.7L37.73,52l0,0h2.29l-3.83-5.82Z" transform="translate(-3.81 -2.91)" fill="#fff"/><path d="M48.39,50.17a7.75,7.75,0,0,1-2.26.38,3.84,3.84,0,0,1-2.83-1.09,3.93,3.93,0,0,1-1.07-2.87,4,4,0,0,1,1-2.89,3.77,3.77,0,0,1,2.8-1.07,7,7,0,0,1,2.34.45l.11,0L49,41.56l-.09,0a10.07,10.07,0,0,0-1.49-.43A8.4,8.4,0,0,0,45.89,41a5.66,5.66,0,0,0-4.14,1.55,5.58,5.58,0,0,0-1.57,4.13,5.33,5.33,0,0,0,1.62,4.07,6,6,0,0,0,4.29,1.54,7.74,7.74,0,0,0,1.4-.13,9.07,9.07,0,0,0,1.4-.39l.1,0-.5-1.57Z" transform="translate(-3.81 -2.91)" fill="#fff"/><polygon points="48.84 44.35 52.48 44.35 52.48 42.74 48.84 42.74 48.84 39.88 52.97 39.88 52.97 38.24 46.85 38.24 46.85 49.17 53.28 49.17 53.28 47.55 48.84 47.55 48.84 44.35" fill="#fff"/><polygon points="57.1 38.24 55.11 38.24 55.11 49.17 61.21 49.17 61.21 47.52 57.1 47.52 57.1 38.24" fill="#fff"/><polygon points="64.41 38.24 62.42 38.24 62.42 49.17 68.52 49.17 68.52 47.52 64.41 47.52 64.41 38.24" fill="#fff"/><polygon points="71.72 44.35 75.36 44.35 75.36 42.74 71.72 42.74 71.72 39.88 75.85 39.88 75.85 38.24 69.73 38.24 69.73 49.17 76.16 49.17 76.16 47.55 71.72 47.55 71.72 44.35" fill="#fff"/><path d="M88.74,48.27a8,8,0,0,0,.1,1,.59.59,0,0,0,0,.14c0-.11-.1-.24-.15-.37l-.22-.46L84.13,41.2l0-.06H81.82L81.8,52v.11h2l0-7.41a6.88,6.88,0,0,0-.08-.81l.18.39a3.6,3.6,0,0,0,.23.47L88.38,52l0,0h2.26V41.14h-2Z" transform="translate(-3.81 -2.91)" fill="#fff"/><path d="M100.93,50.17a7.75,7.75,0,0,1-2.26.38,3.81,3.81,0,0,1-2.82-1.09,3.9,3.9,0,0,1-1.08-2.87,4,4,0,0,1,1-2.89,3.73,3.73,0,0,1,2.79-1.07,7,7,0,0,1,2.34.45l.11,0,.47-1.56-.1,0a9.43,9.43,0,0,0-1.49-.43,8.36,8.36,0,0,0-1.5-.12,5.69,5.69,0,0,0-4.15,1.55,5.58,5.58,0,0,0-1.57,4.13,5.36,5.36,0,0,0,1.62,4.07,6,6,0,0,0,4.29,1.54,7.66,7.66,0,0,0,1.4-.13,9.07,9.07,0,0,0,1.4-.39l.1,0-.5-1.57Z" transform="translate(-3.81 -2.91)" fill="#fff"/><polygon points="101.38 47.55 101.38 44.35 105.02 44.35 105.02 42.74 101.38 42.74 101.38 39.88 105.51 39.88 105.51 38.24 99.39 38.24 99.39 49.17 105.82 49.17 105.82 47.55 101.38 47.55" fill="#fff"/><path d="M17,44.62c-.09,0-.1,0-.09-.08L17,44.3s0-.07.14-.07h1.42c.17,0,.19.11.14.21-.17.4-2.2,5.83-2.4,6.53-.1.36-.11.53.05.53s.75-.53.81-.6a.09.09,0,0,1,.13,0l.11.12s0,.07,0,.12-1.07,1-1.69,1c-.19,0-.31-.06-.31-.27a8,8,0,0,1,.51-1.68l-.1,0c-.56.9-1.66,2-2.44,2a.72.72,0,0,1-.75-.77,5.28,5.28,0,0,1,1.6-3.24,2.89,2.89,0,0,1,1.83-.94.92.92,0,0,1,.73.39l.89-2.55c.08-.22,0-.45-.29-.45ZM15.66,50a3.6,3.6,0,0,0,.76-1.63c0-.54-.25-.77-.62-.77-1.09,0-2.32,2.55-2.32,3.61a.35.35,0,0,0,.34.38C14.3,51.59,15.2,50.63,15.66,50Z" transform="translate(-3.81 -2.91)" fill="#fff"/><path d="M19.3,46.65c0-.1,0-.12.12-.15.25-.07.83-.42.83-.9a.71.71,0,0,0-.24-.54.64.64,0,0,1-.3-.46.46.46,0,0,1,.46-.49c.49,0,.75.65.75,1a1.75,1.75,0,0,1-1.49,1.62C19.37,46.75,19.32,46.77,19.3,46.65Z" transform="translate(-3.81 -2.91)" fill="#fff"/><path d="M106.89,107.44h-.46v-2h.69c.35,0,.79,0,.79.57a.49.49,0,0,1-.41.52l.47.87h-.51l-.41-.8h-.16Zm0-1.11c.27,0,.31,0,.38,0s.16-.15.16-.26a.21.21,0,0,0-.14-.23,1.54,1.54,0,0,0-.4,0Z" transform="translate(-3.81 -2.91)" fill="#fff"/><path d="M107.2,104.75a1.78,1.78,0,1,0,1.77,1.78A1.78,1.78,0,0,0,107.2,104.75Zm0,3.22a1.45,1.45,0,1,1,1.44-1.44A1.44,1.44,0,0,1,107.2,108Z" transform="translate(-3.81 -2.91)" fill="#fff"/><path d="M21.66,107.15v-1.62H19v-2.41l-2,.61v1.8H15.47v1.62H17v5.16c0,2.3.94,3.46,2.79,3.46a4.89,4.89,0,0,0,1.72-.27l.06,0-.09-1.59-.11,0a3.74,3.74,0,0,1-1.05.12,1.14,1.14,0,0,1-1-.42,2.57,2.57,0,0,1-.31-1.43v-5Z" transform="translate(-3.81 -2.91)" fill="#fff"/><path d="M28.64,105.35a3.88,3.88,0,0,0-.52,0,2.82,2.82,0,0,0-1.73.6,3.39,3.39,0,0,0-1,1.31l-.11-1.69H23.41v.09c.06.81.09,1.86.09,3.13v6.8h2.05v-5.29a3.24,3.24,0,0,1,.72-2.24,2.25,2.25,0,0,1,1.7-.77,3,3,0,0,1,.64.06l.1,0v-2Z" transform="translate(-3.81 -2.91)" fill="#fff"/><rect x="26.69" y="102.63" width="2.06" height="10.02" fill="#fff"/><path d="M31.52,103.91a1.27,1.27,0,0,0,.94-.37,1.26,1.26,0,0,0,.36-.91,1.22,1.22,0,0,0-.36-.9,1.35,1.35,0,0,0-1.86,0,1.23,1.23,0,0,0-.37.9,1.25,1.25,0,0,0,1.29,1.28Z" transform="translate(-3.81 -2.91)" fill="#fff"/><path d="M42.58,106.71a3.8,3.8,0,0,0-3-1.45,3.94,3.94,0,0,0-3.4,1.71l-.09-1.48H34.19v.14c0,.82.08,1.91.08,3.22v10.78h2.06V114.5a3.08,3.08,0,0,0,1.09.9,4,4,0,0,0,1.81.42,4.17,4.17,0,0,0,3.25-1.48,5.81,5.81,0,0,0,1.29-4A5.53,5.53,0,0,0,42.58,106.71Zm-5.06.8A2.43,2.43,0,0,1,39,107a2.35,2.35,0,0,1,2,1,3.93,3.93,0,0,1,.75,2.47,4.26,4.26,0,0,1-.76,2.65,2.58,2.58,0,0,1-3.85.19,2.62,2.62,0,0,1-.75-1.9v-1.59a3.59,3.59,0,0,1,.26-1.13A2.53,2.53,0,0,1,37.52,107.51Z" transform="translate(-3.81 -2.91)" fill="#fff"/><path d="M53,115.45a14.41,14.41,0,0,1-.16-2.34V109.5a4.43,4.43,0,0,0-1-3.1,3.84,3.84,0,0,0-3-1.09,6.4,6.4,0,0,0-3.44.91l-.06,0,.49,1.41.09-.06a4.81,4.81,0,0,1,2.64-.74,2.22,2.22,0,0,1,1.64.56,2.13,2.13,0,0,1,.55,1.57v.11a8.91,8.91,0,0,0-4.51,1,3.13,3.13,0,0,0-1.59,2.81,2.79,2.79,0,0,0,.87,2.06,3.13,3.13,0,0,0,2.3.85,3.78,3.78,0,0,0,3.07-1.37l.2,1.15H53Zm-2.88-1.89a2.52,2.52,0,0,1-1.76.65,1.65,1.65,0,0,1-1.17-.43,1.52,1.52,0,0,1-.43-1.16,1.68,1.68,0,0,1,.88-1.5,6.7,6.7,0,0,1,3.18-.56v1.55A1.92,1.92,0,0,1,50.11,113.56Z" transform="translate(-3.81 -2.91)" fill="#fff"/><path d="M63.42,115.6v-.14c0-.62-.08-1.49-.08-2.58v-12H61.27v5.65a3.42,3.42,0,0,0-1-.81,3.92,3.92,0,0,0-1.83-.42,4.07,4.07,0,0,0-3.2,1.53,5.89,5.89,0,0,0-1.28,3.92,5.52,5.52,0,0,0,1.22,3.66,3.89,3.89,0,0,0,3.07,1.45,4,4,0,0,0,2-.53,3.61,3.61,0,0,0,1.17-1.13l.11,1.44Zm-2.15-5.93v1.56a2.74,2.74,0,0,1-.77,2,2.41,2.41,0,0,1-1.75.76,2.33,2.33,0,0,1-2-1,4.68,4.68,0,0,1,0-5.08,2.39,2.39,0,0,1,2-1,2.42,2.42,0,0,1,1.75.73A2.62,2.62,0,0,1,61.27,109.67Z" transform="translate(-3.81 -2.91)" fill="#fff"/><path d="M71.87,105.53s-2.57,5.25-2.75,5.84c-.23-.71-2.79-5.84-2.79-5.84H64.1l5,10,4.94-10Z" transform="translate(-3.81 -2.91)" fill="#fff"/><rect x="71.26" y="102.63" width="2.06" height="10.02" fill="#fff"/><path d="M76.09,103.91a1.29,1.29,0,0,0,.94-.37,1.26,1.26,0,0,0,.36-.91,1.22,1.22,0,0,0-.36-.9,1.35,1.35,0,0,0-1.86,0,1.19,1.19,0,0,0-.37.9,1.25,1.25,0,0,0,1.29,1.28Z" transform="translate(-3.81 -2.91)" fill="#fff"/><path d="M85.25,110.9a5,5,0,0,0-2.08-1.23,4.64,4.64,0,0,1-1.51-.75,1.07,1.07,0,0,1-.35-.82,1.09,1.09,0,0,1,.41-.89,1.72,1.72,0,0,1,1.13-.35,4.19,4.19,0,0,1,2.08.58l.09,0,.52-1.52-.06,0a5,5,0,0,0-2.56-.62,3.86,3.86,0,0,0-2.62.86,2.79,2.79,0,0,0-1,2.16c0,1.27.93,2.23,2.77,2.86a4.11,4.11,0,0,1,1.41.72,1.24,1.24,0,0,1,.38,1,1.17,1.17,0,0,1-.47,1,2.2,2.2,0,0,1-1.36.37,4.67,4.67,0,0,1-2.44-.73l-.09,0L79,115l.06,0a6,6,0,0,0,2.93.7,4.38,4.38,0,0,0,2.83-.84,2.73,2.73,0,0,0,1.06-2.23A2.64,2.64,0,0,0,85.25,110.9Z" transform="translate(-3.81 -2.91)" fill="#fff"/><path d="M95.33,106.75a4.48,4.48,0,0,0-3.45-1.44,4.74,4.74,0,0,0-3.54,1.45,5.31,5.31,0,0,0-1.4,3.87,5.2,5.2,0,0,0,1.36,3.71,4.56,4.56,0,0,0,3.44,1.43,5,5,0,0,0,2.49-.65A4.46,4.46,0,0,0,96,113.26a5.92,5.92,0,0,0,.64-2.82A5.24,5.24,0,0,0,95.33,106.75Zm-3.59,7.46a2.45,2.45,0,0,1-2-1,4.15,4.15,0,0,1-.8-2.62,4.39,4.39,0,0,1,.77-2.64,2.44,2.44,0,0,1,2.08-1,2.38,2.38,0,0,1,2,1.05,4.28,4.28,0,0,1,.77,2.57,4.18,4.18,0,0,1-.83,2.68A2.53,2.53,0,0,1,91.74,114.21Z" transform="translate(-3.81 -2.91)" fill="#fff"/><path d="M103.57,105.35a3.66,3.66,0,0,0-.52,0,2.82,2.82,0,0,0-1.73.6,3.58,3.58,0,0,0-1,1.31l-.1-1.69H98.34v.09c.05.81.08,1.86.08,3.13v6.8h2.06v-5.29a3.19,3.19,0,0,1,.72-2.24,2.24,2.24,0,0,1,1.7-.77,2.86,2.86,0,0,1,.63.06l.1,0v-2Z" transform="translate(-3.81 -2.91)" fill="#fff"/><path d="M63.4,60.72c-.6,0-1.21,0-1.84,0s-1.31,0-2,0a37.12,37.12,0,0,0-12.89,2.79h.11c.22,0,.43,0,.65,0a14.77,14.77,0,0,1,14,14.76c0-.44,0-.88.06-1.3A14.76,14.76,0,0,1,75.13,63.57l.63,0A34.77,34.77,0,0,0,63.4,60.72Zm-2,15.06A15,15,0,0,0,47.65,63.34a38.39,38.39,0,0,1,13.8-2.46,36,36,0,0,1,13.4,2.48A14.93,14.93,0,0,0,61.43,75.78Z" transform="translate(-3.81 -2.91)" fill="#fff"/><path d="M75.84,63.34a35.76,35.76,0,0,0-14.39-2.87A38,38,0,0,0,46.6,63.32l-.92.4h1A14.58,14.58,0,0,1,61.23,78.29h.42A14.5,14.5,0,0,1,75.76,63.73l.93,0ZM61.43,75.78A15,15,0,0,0,47.65,63.34a38.39,38.39,0,0,1,13.8-2.46,36,36,0,0,1,13.4,2.48A14.93,14.93,0,0,0,61.43,75.78Z" transform="translate(-3.81 -2.91)" fill="#fff"/><path d="M46.23,75.85a2.41,2.41,0,1,0,2.42,2.41A2.4,2.4,0,0,0,46.23,75.85Z" transform="translate(-3.81 -2.91)" fill="#fff"/><path d="M76,75.81a2.42,2.42,0,1,0,2.41,2.41A2.41,2.41,0,0,0,76,75.81Z" transform="translate(-3.81 -2.91)" fill="#fff"/><path d="M76.32,71.05a7.18,7.18,0,1,0,7.19,7.18A7.17,7.17,0,0,0,76.32,71.05Zm0,12.14a5,5,0,1,1,5-5A5,5,0,0,1,76.32,83.19Zm0-12.14a7.18,7.18,0,1,0,7.19,7.18A7.17,7.17,0,0,0,76.32,71.05Zm0,12.14a5,5,0,1,1,5-5A5,5,0,0,1,76.32,83.19ZM46.6,71.09a7.17,7.17,0,1,0,7.18,7.17A7.17,7.17,0,0,0,46.6,71.09Zm0,12.13a5,5,0,1,1,5-5A5,5,0,0,1,46.6,83.22Zm44.65-19.5H81.36a35.54,35.54,0,0,0-19.8-5.51c-7.9,0-15.25,2.12-20.29,5.51h-9.4a13.77,13.77,0,0,1,2.95,5.89,14.77,14.77,0,0,0,23.43,18,38.33,38.33,0,0,1,3.3,4.64s2.13-3.16,3.31-4.62a14.79,14.79,0,0,0,23.44-18A13.55,13.55,0,0,1,91.25,63.72ZM46.77,90.19a11.9,11.9,0,1,1,11.9-11.9A11.9,11.9,0,0,1,46.77,90.19ZM61.49,77a14.77,14.77,0,0,0-14-13.46c-.22,0-.43,0-.65,0a37,37,0,0,1,12.78-2.79c.67,0,1.33,0,2,0s1.24,0,1.84,0a34.79,34.79,0,0,1,12.47,2.81h-.11l-.63,0A14.78,14.78,0,0,0,61.55,78.29C61.55,77.85,61.53,77.41,61.49,77Zm14.85,13.2a11.9,11.9,0,1,1,11.9-11.9A11.9,11.9,0,0,1,76.34,90.19Zm0-19.14a7.18,7.18,0,1,0,7.19,7.18A7.17,7.17,0,0,0,76.32,71.05Zm0,12.14a5,5,0,1,1,5-5A5,5,0,0,1,76.32,83.19ZM46.6,71.09a7.17,7.17,0,1,0,7.18,7.17A7.17,7.17,0,0,0,46.6,71.09Zm0,12.13a5,5,0,1,1,5-5A5,5,0,0,1,46.6,83.22Zm0-12.13a7.17,7.17,0,1,0,7.18,7.17A7.17,7.17,0,0,0,46.6,71.09Zm0,12.13a5,5,0,1,1,5-5A5,5,0,0,1,46.6,83.22Z" transform="translate(-3.81 -2.91)" fill="#fff"/><path d="M95.17,65.23a.48.48,0,0,0,.43-.51c0-.52-.46-.57-.81-.57h-.7v2h.47v-.8h.16l.41.8h.53ZM94.94,65c-.06,0-.1,0-.38,0v-.54H95c.09,0,.13.11.13.24S95.09,64.93,94.94,65Z" transform="translate(-3.81 -2.91)" fill="#fff"/><path d="M94.88,63.41a1.79,1.79,0,1,0,1.78,1.79A1.79,1.79,0,0,0,94.88,63.41Zm0,3.24a1.46,1.46,0,1,1,1.45-1.45A1.47,1.47,0,0,1,94.88,66.65Z" transform="translate(-3.81 -2.91)" fill="#fff"/><g clip-path="url(#clip-path)"><path d="M61.55,118.4A57.75,57.75,0,1,1,119.3,60.65,57.81,57.81,0,0,1,61.55,118.4Zm0-114a56.26,56.26,0,1,0,56.26,56.26A56.32,56.32,0,0,0,61.55,4.39Z" transform="translate(-3.81 -2.91)" fill="#fff"/><path d="M61.55,115.46a54.81,54.81,0,1,1,54.81-54.81A54.87,54.87,0,0,1,61.55,115.46Zm0-108.89a54.09,54.09,0,1,0,54.09,54.08A54.14,54.14,0,0,0,61.55,6.57Z" transform="translate(-3.81 -2.91)" fill="#fff"/></g></g></g></g></svg>