<svg xmlns="http://www.w3.org/2000/svg" viewBox="0 0 280.2 127.49"><defs><style>.cls-1{fill:#0ed08b;}.cls-2{fill:#fff;}.cls-3,.cls-4{fill:none;stroke:#fff;stroke-miterlimit:10;stroke-width:8.53px;}.cls-4{stroke-linecap:round;}</style></defs><title>verified</title><g id="Calque_2" data-name="Calque 2"><g id="Body_2" data-name="Body 2"><path class="cls-1" d="M63.75,0H268.82A11.38,11.38,0,0,1,280.2,11.38V116.12a11.38,11.38,0,0,1-11.38,11.38H63.75A63.75,63.75,0,0,1,0,63.75v0A63.75,63.75,0,0,1,63.75,0Z"/><path class="cls-2" d="M159.65,21.82h-4.53l-1,2.18h-.9L157,15.86h.84L161.53,24h-.9Zm-.31-.69-2-4.38-1.95,4.38Z"/><path class="cls-2" d="M163.56,23.66a2.85,2.85,0,0,1-1.12-1.11,3.21,3.21,0,0,1-.4-1.61,3.14,3.14,0,0,1,.4-1.6,2.85,2.85,0,0,1,1.12-1.11,3.36,3.36,0,0,1,1.63-.39,3.24,3.24,0,0,1,1.41.3,2.39,2.39,0,0,1,1,.91l-.61.41a2,2,0,0,0-.77-.68,2.29,2.29,0,0,0-1-.22,2.51,2.51,0,0,0-1.2.29,2.1,2.1,0,0,0-.82.85,2.73,2.73,0,0,0,0,2.49A2.14,2.14,0,0,0,164,23a2.4,2.4,0,0,0,1.2.29,2.29,2.29,0,0,0,1-.22,1.9,1.9,0,0,0,.77-.67l.61.42a2.39,2.39,0,0,1-1,.9,3.2,3.2,0,0,1-1.4.31A3.36,3.36,0,0,1,163.56,23.66Z"/><path class="cls-2" d="M170,23.66a2.81,2.81,0,0,1-1.13-1.11,3.21,3.21,0,0,1-.4-1.61,3.14,3.14,0,0,1,.4-1.6A2.81,2.81,0,0,1,170,18.23a3.29,3.29,0,0,1,1.62-.39,3.21,3.21,0,0,1,1.41.3,2.39,2.39,0,0,1,1,.91l-.61.41a2,2,0,0,0-.77-.68,2.29,2.29,0,0,0-1-.22,2.47,2.47,0,0,0-1.19.29,2.06,2.06,0,0,0-.83.85,2.73,2.73,0,0,0,0,2.49,2.1,2.1,0,0,0,.83.84,2.36,2.36,0,0,0,1.19.29,2.29,2.29,0,0,0,1-.22,1.9,1.9,0,0,0,.77-.67l.61.42a2.39,2.39,0,0,1-1,.9,3.17,3.17,0,0,1-1.4.31A3.3,3.3,0,0,1,170,23.66Z"/><path class="cls-2" d="M180.86,21.2h-5.12a2.18,2.18,0,0,0,.74,1.54,2.43,2.43,0,0,0,1.67.58,2.59,2.59,0,0,0,1-.2,2.1,2.1,0,0,0,.82-.6l.47.54a2.64,2.64,0,0,1-1,.74,3.64,3.64,0,0,1-3-.14,2.92,2.92,0,0,1-1.14-1.12,3.14,3.14,0,0,1-.4-1.6,3.24,3.24,0,0,1,.39-1.6,2.73,2.73,0,0,1,1.07-1.11,3.18,3.18,0,0,1,3.05,0,2.81,2.81,0,0,1,1.06,1.1,3.39,3.39,0,0,1,.38,1.61Zm-4.44-2.09a2.3,2.3,0,0,0-.68,1.47h4.34a2.21,2.21,0,0,0-.68-1.47,2.26,2.26,0,0,0-3,0ZM176,15.49h1.11l1.59,1.44h-.81Z"/><path class="cls-2" d="M182.77,23.84a2.92,2.92,0,0,1-1.06-.54l.37-.65a3,3,0,0,0,1,.49,3.73,3.73,0,0,0,1.2.2,2.24,2.24,0,0,0,1.24-.27.82.82,0,0,0,.4-.73.64.64,0,0,0-.22-.53,1.3,1.3,0,0,0-.56-.29,8.32,8.32,0,0,0-.89-.2A9.06,9.06,0,0,1,183,21a1.79,1.79,0,0,1-.77-.49,1.42,1.42,0,0,1-.32-1,1.52,1.52,0,0,1,.64-1.26,2.9,2.9,0,0,1,1.78-.48,4.77,4.77,0,0,1,1.18.15,3.44,3.44,0,0,1,1,.42l-.36.66a3.06,3.06,0,0,0-1.8-.52,2.12,2.12,0,0,0-1.19.27.87.87,0,0,0-.41.74.74.74,0,0,0,.23.56,1.41,1.41,0,0,0,.57.3,7.5,7.5,0,0,0,.93.21,8.84,8.84,0,0,1,1.17.28,1.77,1.77,0,0,1,.76.47,1.37,1.37,0,0,1,.31.93,1.48,1.48,0,0,1-.67,1.28,3.18,3.18,0,0,1-1.85.47A4.55,4.55,0,0,1,182.77,23.84Z"/><path class="cls-2" d="M202.64,15.86,199.89,24H199l-2.39-6.94L194.21,24h-.9l-2.74-8.14h.88l2.35,7,2.43-7h.8l2.4,7,2.38-7Z"/><path class="cls-2" d="M204,16.37a.56.56,0,0,1-.18-.42.53.53,0,0,1,.18-.4.54.54,0,0,1,.42-.18.62.62,0,0,1,.44.17.56.56,0,0,1,.17.4.61.61,0,0,1-.17.43.59.59,0,0,1-.44.18A.54.54,0,0,1,204,16.37Zm0,1.51h.82V24H204Z"/><path class="cls-2" d="M208.16,16.6v3.2h4.21v.75h-4.21V24h-.86V15.86h5.58v.74Z"/><path class="cls-2" d="M214.36,16.37a.56.56,0,0,1-.18-.42.53.53,0,0,1,.18-.4.57.57,0,0,1,.43-.18.61.61,0,0,1,.43.17.56.56,0,0,1,.17.4.61.61,0,0,1-.17.43.58.58,0,0,1-.43.18A.57.57,0,0,1,214.36,16.37Zm0,1.51h.82V24h-.82Z"/><path class="cls-2" d="M226.2,17.88v5.37a3.11,3.11,0,0,1-.76,2.31,3.13,3.13,0,0,1-2.29.75,5,5,0,0,1-1.61-.25,3.29,3.29,0,0,1-1.24-.69l.42-.63a3,3,0,0,0,1.07.62,4,4,0,0,0,1.33.22,2.34,2.34,0,0,0,1.71-.54,2.25,2.25,0,0,0,.55-1.68v-.78a2.46,2.46,0,0,1-1,.88,3.1,3.1,0,0,1-1.37.31,3.28,3.28,0,0,1-1.57-.38,2.74,2.74,0,0,1-1.1-1.06,3.16,3.16,0,0,1,0-3.08,2.76,2.76,0,0,1,1.1-1,3.22,3.22,0,0,1,1.57-.37,3.06,3.06,0,0,1,1.4.31,2.46,2.46,0,0,1,1,.91V17.88Zm-1.92,4.87a2.13,2.13,0,0,0,.83-.8,2.47,2.47,0,0,0,0-2.32,2.18,2.18,0,0,0-.83-.79,2.69,2.69,0,0,0-2.39,0,2,2,0,0,0-.83.79,2.39,2.39,0,0,0,0,2.32,2.06,2.06,0,0,0,.83.8,2.46,2.46,0,0,0,1.19.28A2.53,2.53,0,0,0,224.28,22.75Z"/><path class="cls-2" d="M230.18,18.15a2.9,2.9,0,0,1,1.42-.31v.8h-.2a1.94,1.94,0,0,0-1.51.59,2.39,2.39,0,0,0-.55,1.66V24h-.82V17.88h.79v1.2A2,2,0,0,1,230.18,18.15Z"/><path class="cls-2" d="M237.05,18.43a2.31,2.31,0,0,1,.64,1.78V24h-.79V23a1.87,1.87,0,0,1-.82.75,2.84,2.84,0,0,1-1.28.27,2.53,2.53,0,0,1-1.63-.49,1.59,1.59,0,0,1-.6-1.29,1.56,1.56,0,0,1,.56-1.26,2.73,2.73,0,0,1,1.8-.47h1.94v-.38a1.58,1.58,0,0,0-.44-1.2,1.83,1.83,0,0,0-1.3-.41,3.2,3.2,0,0,0-1.11.19,2.78,2.78,0,0,0-.92.53l-.37-.62a3.31,3.31,0,0,1,1.11-.61,4.52,4.52,0,0,1,1.38-.21A2.61,2.61,0,0,1,237.05,18.43Zm-.93,4.66a2,2,0,0,0,.75-.93v-1H235c-1,0-1.57.37-1.57,1.09a1,1,0,0,0,.41.85,1.88,1.88,0,0,0,1.14.31A2.18,2.18,0,0,0,236.12,23.09Z"/><path class="cls-2" d="M243.16,23.63a1.71,1.71,0,0,1-.58.32,2.45,2.45,0,0,1-.71.11,1.8,1.8,0,0,1-1.33-.47,1.77,1.77,0,0,1-.46-1.31v-3.7H239v-.7h1.1V16.55h.82v1.33h1.86v.7H240.9v3.65a1.11,1.11,0,0,0,.28.83,1,1,0,0,0,.78.29,1.57,1.57,0,0,0,.49-.08,1.44,1.44,0,0,0,.42-.24Z"/><path class="cls-2" d="M250.17,17.88V24h-.79V22.88a2.35,2.35,0,0,1-.9.87,2.74,2.74,0,0,1-1.3.31,2.37,2.37,0,0,1-2.58-2.63V17.88h.83v3.47a2,2,0,0,0,.47,1.46,1.77,1.77,0,0,0,1.36.5,2,2,0,0,0,1.52-.58,2.27,2.27,0,0,0,.56-1.64V17.88Z"/><path class="cls-2" d="M252.47,16.37a.59.59,0,0,1-.17-.42.56.56,0,0,1,.17-.4.58.58,0,0,1,.43-.18.6.6,0,0,1,.43.17.53.53,0,0,1,.18.4.58.58,0,0,1-.18.43.57.57,0,0,1-.43.18A.58.58,0,0,1,252.47,16.37Zm0,1.51h.83V24h-.83Z"/><path class="cls-2" d="M258.83,23.63a1.66,1.66,0,0,1-.57.32,2.46,2.46,0,0,1-.72.11,1.79,1.79,0,0,1-1.32-.47,1.74,1.74,0,0,1-.47-1.31v-3.7h-1.09v-.7h1.09V16.55h.83v1.33h1.86v.7h-1.86v3.65a1.15,1.15,0,0,0,.27.83,1,1,0,0,0,.78.29,1.69,1.69,0,0,0,.5-.08,1.38,1.38,0,0,0,.41-.24Z"/><path class="cls-2" d="M159.65,39.38h-4.53l-1,2.17h-.9L157,33.41h.84l3.72,8.14h-.9Zm-.31-.7-2-4.37-1.95,4.37Z"/><path class="cls-2" d="M162.7,33.93a.58.58,0,0,1-.18-.42.6.6,0,0,1,.61-.58.6.6,0,0,1,.43.16.58.58,0,0,1,.17.41.58.58,0,0,1-.6.6A.6.6,0,0,1,162.7,33.93Zm0,1.51h.82v6.11h-.82Z"/><path class="cls-2" d="M167.49,35.7a3.09,3.09,0,0,1,1.43-.31v.8h-.2a2,2,0,0,0-1.51.59,2.35,2.35,0,0,0-.55,1.67v3.11h-.82V35.44h.79v1.2A2,2,0,0,1,167.49,35.7Z"/><path class="cls-2" d="M174.46,41.22a2.91,2.91,0,0,1-1.12-1.11,3.15,3.15,0,0,1-.41-1.62,3.08,3.08,0,0,1,.41-1.6,2.82,2.82,0,0,1,1.12-1.1,3.24,3.24,0,0,1,1.62-.4,3,3,0,0,1,1.41.31,2.33,2.33,0,0,1,1,.9l-.62.42a1.93,1.93,0,0,0-.77-.68,2.3,2.3,0,0,0-1-.23,2.36,2.36,0,0,0-1.19.3,2.16,2.16,0,0,0-.83.84,2.55,2.55,0,0,0-.29,1.24,2.48,2.48,0,0,0,.29,1.25,2,2,0,0,0,.83.84,2.36,2.36,0,0,0,1.19.3,2.29,2.29,0,0,0,1-.22,1.86,1.86,0,0,0,.77-.68l.62.42a2.27,2.27,0,0,1-1,.9,3.11,3.11,0,0,1-1.41.31A3.35,3.35,0,0,1,174.46,41.22Z"/><path class="cls-2" d="M180.89,41.21a3,3,0,0,1-1.11-1.11,3.35,3.35,0,0,1,0-3.21,2.86,2.86,0,0,1,1.11-1.1,3.19,3.19,0,0,1,1.6-.4,3.13,3.13,0,0,1,1.59.4,2.86,2.86,0,0,1,1.11,1.1,3.42,3.42,0,0,1,0,3.21,3,3,0,0,1-1.11,1.11,3.13,3.13,0,0,1-1.59.4A3.19,3.19,0,0,1,180.89,41.21Zm2.76-.63a2,2,0,0,0,.81-.84,2.82,2.82,0,0,0,0-2.49,2,2,0,0,0-.81-.84,2.41,2.41,0,0,0-2.33,0,2.14,2.14,0,0,0-.82.84,2.82,2.82,0,0,0,0,2.49,2.07,2.07,0,0,0,.82.84,2.41,2.41,0,0,0,2.33,0Z"/><path class="cls-2" d="M192.22,36.06A2.6,2.6,0,0,1,192.9,38v3.54h-.82V38.09a2,2,0,0,0-.48-1.45,1.77,1.77,0,0,0-1.36-.5,2.07,2.07,0,0,0-1.56.58,2.2,2.2,0,0,0-.58,1.62v3.21h-.82V35.44h.79v1.13a2.23,2.23,0,0,1,.93-.87,3,3,0,0,1,1.39-.31A2.47,2.47,0,0,1,192.22,36.06Z"/><path class="cls-2" d="M200.75,32.93v8.62H200V40.34a2.55,2.55,0,0,1-1,.95,3,3,0,0,1-1.38.32,3.17,3.17,0,0,1-1.56-.39A2.91,2.91,0,0,1,195,40.11a3.54,3.54,0,0,1,0-3.23,2.81,2.81,0,0,1,1.09-1.1,3.17,3.17,0,0,1,1.56-.39,2.82,2.82,0,0,1,1.34.31,2.59,2.59,0,0,1,1,.9V32.93Zm-1.92,7.65a2.12,2.12,0,0,0,.81-.84,2.73,2.73,0,0,0,0-2.49,2.18,2.18,0,0,0-.81-.84,2.28,2.28,0,0,0-1.16-.3,2.32,2.32,0,0,0-1.17.3,2.18,2.18,0,0,0-.81.84,2.73,2.73,0,0,0,0,2.49,2.12,2.12,0,0,0,.81.84,2.32,2.32,0,0,0,1.17.3A2.28,2.28,0,0,0,198.83,40.58Z"/><path class="cls-2" d="M203,33.93a.61.61,0,0,1-.17-.42.58.58,0,0,1,.17-.41.57.57,0,0,1,.43-.17.59.59,0,0,1,.43.16.55.55,0,0,1,.18.41.58.58,0,0,1-.18.43.6.6,0,0,1-.43.17A.61.61,0,0,1,203,33.93Zm0,1.51h.83v6.11h-.83Z"/><path class="cls-2" d="M209.4,41.18a1.44,1.44,0,0,1-.57.32,2.17,2.17,0,0,1-.72.11,1.62,1.62,0,0,1-1.79-1.78V36.14h-1.09v-.7h1.09V34.1h.83v1.34H209v.7h-1.86v3.65a1.17,1.17,0,0,0,.27.83,1,1,0,0,0,.78.28,1.38,1.38,0,0,0,.5-.08,1.09,1.09,0,0,0,.41-.23Z"/><path class="cls-2" d="M210.89,33.93a.61.61,0,0,1-.17-.42.58.58,0,0,1,.17-.41.57.57,0,0,1,.43-.17.59.59,0,0,1,.43.16.55.55,0,0,1,.18.41.58.58,0,0,1-.18.43.6.6,0,0,1-.43.17A.61.61,0,0,1,210.89,33.93Zm0,1.51h.83v6.11h-.83Z"/><path class="cls-2" d="M214.94,41.21a2.91,2.91,0,0,1-1.12-1.11,3.35,3.35,0,0,1,0-3.21,2.82,2.82,0,0,1,1.12-1.1,3.36,3.36,0,0,1,3.18,0,2.73,2.73,0,0,1,1.11,1.1,3.35,3.35,0,0,1,0,3.21,2.82,2.82,0,0,1-1.11,1.11,3.36,3.36,0,0,1-3.18,0Zm2.76-.63a2.12,2.12,0,0,0,.81-.84,2.82,2.82,0,0,0,0-2.49,2.18,2.18,0,0,0-.81-.84,2.43,2.43,0,0,0-2.34,0,2.18,2.18,0,0,0-.81.84,2.73,2.73,0,0,0,0,2.49,2.12,2.12,0,0,0,.81.84,2.43,2.43,0,0,0,2.34,0Z"/><path class="cls-2" d="M226.27,36.06A2.64,2.64,0,0,1,227,38v3.54h-.83V38.09a2,2,0,0,0-.47-1.45,1.78,1.78,0,0,0-1.36-.5,2.11,2.11,0,0,0-1.57.58,2.24,2.24,0,0,0-.57,1.62v3.21h-.83V35.44h.79v1.13a2.32,2.32,0,0,1,.94-.87,2.94,2.94,0,0,1,1.39-.31A2.49,2.49,0,0,1,226.27,36.06Z"/><path class="cls-2" d="M234.14,36.06a2.64,2.64,0,0,1,.68,1.95v3.54H234V38.09a2,2,0,0,0-.47-1.45,1.77,1.77,0,0,0-1.36-.5,2.11,2.11,0,0,0-1.57.58,2.24,2.24,0,0,0-.57,1.62v3.21h-.83V35.44H230v1.13a2.32,2.32,0,0,1,.94-.87,2.94,2.94,0,0,1,1.39-.31A2.49,2.49,0,0,1,234.14,36.06Z"/><path class="cls-2" d="M242.41,38.75H237.3a2.15,2.15,0,0,0,.73,1.54,2.43,2.43,0,0,0,1.67.59,2.77,2.77,0,0,0,1.05-.2,2.32,2.32,0,0,0,.82-.6l.47.53a2.56,2.56,0,0,1-1,.75,3.44,3.44,0,0,1-1.34.25,3.36,3.36,0,0,1-1.67-.4,2.94,2.94,0,0,1-1.13-1.11,3.19,3.19,0,0,1-.41-1.61,3.27,3.27,0,0,1,.39-1.6,2.83,2.83,0,0,1,1.07-1.1,3.11,3.11,0,0,1,3,0,2.81,2.81,0,0,1,1.06,1.1,3.21,3.21,0,0,1,.38,1.6ZM238,36.66a2.21,2.21,0,0,0-.68,1.48h4.33a2.21,2.21,0,0,0-.68-1.48,2.1,2.1,0,0,0-1.49-.56A2.08,2.08,0,0,0,238,36.66ZM240.3,33h1.1l-1.88,1.44h-.82Z"/><path class="cls-2" d="M155.9,58.64a3.86,3.86,0,0,1-1.52-1.48,4.36,4.36,0,0,1,0-4.24,4,4,0,0,1,1.53-1.49,4.79,4.79,0,0,1,3.86-.23,3.47,3.47,0,0,1,1.3.89l-.55.54a3.22,3.22,0,0,0-2.4-1,3.59,3.59,0,0,0-1.76.44,3.21,3.21,0,0,0-1.24,1.21,3.51,3.51,0,0,0,0,3.44A3.28,3.28,0,0,0,156.36,58a3.59,3.59,0,0,0,1.76.44,3.19,3.19,0,0,0,2.4-1l.55.55a3.55,3.55,0,0,1-1.31.89,4.37,4.37,0,0,1-1.68.31A4.43,4.43,0,0,1,155.9,58.64Z"/><path class="cls-2" d="M163.37,58.77a3,3,0,0,1-1.11-1.11,3.11,3.11,0,0,1-.41-1.61,3.05,3.05,0,0,1,.41-1.6,2.89,2.89,0,0,1,1.11-1.11,3.46,3.46,0,0,1,3.19,0,2.89,2.89,0,0,1,1.11,1.11,3.14,3.14,0,0,1,.4,1.6,3.21,3.21,0,0,1-.4,1.61,3,3,0,0,1-1.11,1.11,3.38,3.38,0,0,1-3.19,0Zm2.76-.63a2,2,0,0,0,.81-.85,2.5,2.5,0,0,0,.29-1.24,2.52,2.52,0,0,0-.29-1.24,2,2,0,0,0-.81-.85,2.49,2.49,0,0,0-2.33,0,2.1,2.1,0,0,0-.82.85,2.52,2.52,0,0,0-.29,1.24,2.5,2.5,0,0,0,.29,1.24,2.1,2.1,0,0,0,.82.85,2.49,2.49,0,0,0,2.33,0Z"/><path class="cls-2" d="M171,51.41a1.23,1.23,0,0,0-.27.86V53h1.88v.7h-1.86v5.42h-.82V53.69h-1.1V53h1.1v-.75a1.68,1.68,0,0,1,1.84-1.82,2.54,2.54,0,0,1,.68.1,1.47,1.47,0,0,1,.54.29l-.27.61a1.4,1.4,0,0,0-.91-.3A1.07,1.07,0,0,0,171,51.41Z"/><path class="cls-2" d="M174.91,51.41a1.23,1.23,0,0,0-.27.86V53h1.88v.7h-1.86v5.42h-.82V53.69h-1.1V53h1.1v-.75a1.82,1.82,0,0,1,.48-1.33,1.86,1.86,0,0,1,1.37-.49,2.53,2.53,0,0,1,.67.1,1.52,1.52,0,0,1,.55.29l-.28.61a1.39,1.39,0,0,0-.91-.3A1.07,1.07,0,0,0,174.91,51.41Z"/><path class="cls-2" d="M180.23,53.26a2.9,2.9,0,0,1,1.42-.31v.8h-.2a1.94,1.94,0,0,0-1.51.59,2.39,2.39,0,0,0-.55,1.66v3.12h-.82V53h.79v1.2A2,2,0,0,1,180.23,53.26Z"/><path class="cls-2" d="M188.4,56.31h-5.11a2.21,2.21,0,0,0,.73,1.54,2.44,2.44,0,0,0,1.68.58,2.57,2.57,0,0,0,1-.2,2.21,2.21,0,0,0,.83-.6l.46.54a2.68,2.68,0,0,1-1,.74,3.66,3.66,0,0,1-3-.14,2.94,2.94,0,0,1-1.13-1.11,3.42,3.42,0,0,1,0-3.21,2.86,2.86,0,0,1,1.07-1.11,3.06,3.06,0,0,1,1.53-.39,2.94,2.94,0,0,1,1.52.39,2.8,2.8,0,0,1,1.06,1.1,3.28,3.28,0,0,1,.39,1.61ZM184,54.22a2.21,2.21,0,0,0-.68,1.47h4.34a2.3,2.3,0,0,0-.68-1.47,2.08,2.08,0,0,0-1.5-.56A2.05,2.05,0,0,0,184,54.22Z"/><path class="cls-2" d="M189.76,55.6h3.05v.72h-3.05Z"/><path class="cls-2" d="M195.87,51.41a1.23,1.23,0,0,0-.27.86V53h1.89v.7h-1.87v5.42h-.82V53.69h-1.09V53h1.09v-.75a1.82,1.82,0,0,1,.48-1.33,1.86,1.86,0,0,1,1.37-.49,2.47,2.47,0,0,1,.67.1,1.52,1.52,0,0,1,.55.29l-.28.61a1.37,1.37,0,0,0-.91-.3A1.1,1.1,0,0,0,195.87,51.41Z"/><path class="cls-2" d="M199.4,58.77a3,3,0,0,1-1.11-1.11,3.21,3.21,0,0,1-.41-1.61,3.15,3.15,0,0,1,.41-1.6,2.89,2.89,0,0,1,1.11-1.11A3.3,3.3,0,0,1,201,53a3.23,3.23,0,0,1,1.59.39,2.89,2.89,0,0,1,1.11,1.11,3.14,3.14,0,0,1,.4,1.6,3.21,3.21,0,0,1-.4,1.61,3,3,0,0,1-1.11,1.11,3.23,3.23,0,0,1-1.59.4A3.3,3.3,0,0,1,199.4,58.77Zm2.76-.63a2,2,0,0,0,.81-.85,2.5,2.5,0,0,0,.29-1.24,2.52,2.52,0,0,0-.29-1.24,2,2,0,0,0-.81-.85,2.49,2.49,0,0,0-2.33,0,2.1,2.1,0,0,0-.82.85,2.64,2.64,0,0,0-.29,1.24,2.61,2.61,0,0,0,.29,1.24,2.1,2.1,0,0,0,.82.85,2.49,2.49,0,0,0,2.33,0Z"/><path class="cls-2" d="M207.44,53.26a3,3,0,0,1,1.43-.31v.8h-.2a1.93,1.93,0,0,0-1.51.59,2.34,2.34,0,0,0-.55,1.66v3.12h-.82V53h.79v1.2A2,2,0,0,1,207.44,53.26Z"/><path class="cls-2" d="M213.84,58.74a1.57,1.57,0,0,1-.57.32,2.46,2.46,0,0,1-.72.11,1.63,1.63,0,0,1-1.79-1.78v-3.7h-1.09V53h1.09V51.66h.83V53h1.86v.7h-1.86v3.65a1.15,1.15,0,0,0,.27.83,1,1,0,0,0,.79.29,1.62,1.62,0,0,0,.49-.08,1.27,1.27,0,0,0,.41-.24Z"/><path class="cls-2" d="M163,68.53v8.13h-.83V70.15L159,75.63h-.41l-3.2-5.44v6.47h-.82V68.53h.71l3.53,6,3.5-6Z"/><path class="cls-2" d="M165.46,69a.61.61,0,0,1-.17-.42.58.58,0,0,1,.17-.41.64.64,0,0,1,.86,0,.55.55,0,0,1,.18.41.6.6,0,0,1-.61.6A.61.61,0,0,1,165.46,69Zm0,1.51h.82v6.11h-.82Z"/><path class="cls-2" d="M173.55,71.17a2.64,2.64,0,0,1,.68,2v3.54h-.82V73.2a2,2,0,0,0-.48-1.45,1.77,1.77,0,0,0-1.36-.5,2.11,2.11,0,0,0-1.57.58,2.22,2.22,0,0,0-.57,1.62v3.21h-.83V70.55h.79v1.13a2.32,2.32,0,0,1,.94-.87,2.94,2.94,0,0,1,1.39-.31A2.47,2.47,0,0,1,173.55,71.17Z"/><path class="cls-2" d="M176.46,69a.61.61,0,0,1-.17-.42.58.58,0,0,1,.17-.41.57.57,0,0,1,.43-.17.59.59,0,0,1,.43.16.55.55,0,0,1,.18.41.58.58,0,0,1-.18.43.6.6,0,0,1-.43.17A.61.61,0,0,1,176.46,69Zm0,1.51h.82v6.11h-.82Z"/><path class="cls-2" d="M184.31,70.89A2.75,2.75,0,0,1,185.4,72a3.46,3.46,0,0,1,0,3.23,2.77,2.77,0,0,1-1.09,1.11,3.11,3.11,0,0,1-1.56.39,2.91,2.91,0,0,1-1.37-.32,2.51,2.51,0,0,1-1-1v1.21h-.79V68h.83v3.67a2.57,2.57,0,0,1,1-.9,2.84,2.84,0,0,1,1.34-.31A3.11,3.11,0,0,1,184.31,70.89Zm-.45,4.8a2.14,2.14,0,0,0,.82-.84,2.52,2.52,0,0,0,.29-1.24,2.56,2.56,0,0,0-.29-1.25,2.14,2.14,0,0,0-.82-.84,2.31,2.31,0,0,0-1.16-.3,2.26,2.26,0,0,0-1.17.3,2.14,2.14,0,0,0-.82.84,2.68,2.68,0,0,0-.29,1.25,2.64,2.64,0,0,0,.29,1.24,2.14,2.14,0,0,0,.82.84,2.26,2.26,0,0,0,1.17.3A2.31,2.31,0,0,0,183.86,75.69Z"/><path class="cls-2" d="M191.43,71.1a2.34,2.34,0,0,1,.64,1.77v3.79h-.79v-1a1.85,1.85,0,0,1-.82.74,2.86,2.86,0,0,1-1.29.27,2.51,2.51,0,0,1-1.63-.49,1.68,1.68,0,0,1,0-2.54,2.77,2.77,0,0,1,1.8-.48h1.94v-.37a1.56,1.56,0,0,0-.44-1.2,1.82,1.82,0,0,0-1.29-.42,3.51,3.51,0,0,0-1.12.19,3.08,3.08,0,0,0-.92.53l-.37-.61a3.1,3.1,0,0,1,1.12-.61,4.14,4.14,0,0,1,1.37-.22A2.6,2.6,0,0,1,191.43,71.1Zm-.93,4.65a1.89,1.89,0,0,0,.74-.92v-1h-1.92c-1,0-1.57.36-1.57,1.09a1,1,0,0,0,.41.84,1.82,1.82,0,0,0,1.14.31A2.24,2.24,0,0,0,190.5,75.75Z"/><path class="cls-2" d="M196,70.82a2.92,2.92,0,0,1,1.42-.32v.8h-.2a2,2,0,0,0-1.51.6,2.35,2.35,0,0,0-.54,1.66v3.11h-.83V70.55h.79v1.2A1.92,1.92,0,0,1,196,70.82Z"/><path class="cls-2" d="M155.05,94a3.24,3.24,0,0,1-1.28-.77l.34-.66a3.18,3.18,0,0,0,1.17.71,4.34,4.34,0,0,0,1.51.28,2.81,2.81,0,0,0,1.64-.4,1.26,1.26,0,0,0,.55-1,1.06,1.06,0,0,0-.3-.78,2,2,0,0,0-.73-.44,11,11,0,0,0-1.19-.35,11.91,11.91,0,0,1-1.47-.44,2.47,2.47,0,0,1-.93-.66,1.73,1.73,0,0,1-.39-1.2,2,2,0,0,1,.32-1.12,2.22,2.22,0,0,1,1-.81A4.14,4.14,0,0,1,157,86a4.8,4.8,0,0,1,1.36.19,4.13,4.13,0,0,1,1.16.53l-.29.69a3.87,3.87,0,0,0-1.09-.51,4.2,4.2,0,0,0-1.14-.17,2.58,2.58,0,0,0-1.61.42,1.26,1.26,0,0,0-.55,1.06,1,1,0,0,0,.3.78,2,2,0,0,0,.75.46c.29.1.69.22,1.2.34a11.86,11.86,0,0,1,1.45.44,2.34,2.34,0,0,1,.93.65,1.7,1.7,0,0,1,.39,1.18,1.94,1.94,0,0,1-.34,1.12,2.23,2.23,0,0,1-1,.8,4.22,4.22,0,0,1-1.69.3A5.38,5.38,0,0,1,155.05,94Z"/><path class="cls-2" d="M166.85,91.42h-5.12a2.21,2.21,0,0,0,.73,1.54,2.45,2.45,0,0,0,1.68.58,2.59,2.59,0,0,0,1.05-.2,2.29,2.29,0,0,0,.82-.6l.47.54a2.71,2.71,0,0,1-1,.74,3.64,3.64,0,0,1-3-.14,2.9,2.9,0,0,1-1.14-1.11,3.21,3.21,0,0,1-.4-1.61,3.24,3.24,0,0,1,.39-1.6,2.73,2.73,0,0,1,1.07-1.11,3.18,3.18,0,0,1,3,0,2.81,2.81,0,0,1,1.06,1.1,3.39,3.39,0,0,1,.38,1.61Zm-4.44-2.09a2.23,2.23,0,0,0-.68,1.47h4.34a2.23,2.23,0,0,0-.68-1.47,2.26,2.26,0,0,0-3,0ZM162,85.71h1.11l1.59,1.44h-.81Z"/><path class="cls-2" d="M169.46,93.88a2.78,2.78,0,0,1-1.12-1.11,3.11,3.11,0,0,1-.41-1.61,3.05,3.05,0,0,1,.41-1.6,2.78,2.78,0,0,1,1.12-1.11,3.35,3.35,0,0,1,1.62-.39,3.18,3.18,0,0,1,1.41.3,2.35,2.35,0,0,1,1,.91l-.62.41a2,2,0,0,0-.77-.68,2.29,2.29,0,0,0-1-.22,2.47,2.47,0,0,0-1.19.29,2.12,2.12,0,0,0-.83.85,2.82,2.82,0,0,0,0,2.49,2.16,2.16,0,0,0,.83.84,2.36,2.36,0,0,0,1.19.29,2.29,2.29,0,0,0,1-.22,1.84,1.84,0,0,0,.77-.67l.62.42a2.39,2.39,0,0,1-1,.9,3.42,3.42,0,0,1-3-.09Z"/><path class="cls-2" d="M180,88.72a2.64,2.64,0,0,1,.68,2v3.55h-.83V90.75a2,2,0,0,0-.48-1.45,1.79,1.79,0,0,0-1.36-.5,2.08,2.08,0,0,0-1.56.59,2.23,2.23,0,0,0-.58,1.62v3.21H175V85.59h.82v3.58a2.31,2.31,0,0,1,.93-.82,3,3,0,0,1,1.36-.29A2.55,2.55,0,0,1,180,88.72Z"/><path class="cls-2" d="M188.22,91.42H183.1a2.21,2.21,0,0,0,.73,1.54,2.45,2.45,0,0,0,1.68.58,2.59,2.59,0,0,0,1.05-.2,2.29,2.29,0,0,0,.82-.6l.47.54a2.71,2.71,0,0,1-1,.74,3.64,3.64,0,0,1-3-.14,2.9,2.9,0,0,1-1.14-1.11,3.21,3.21,0,0,1-.4-1.61,3.24,3.24,0,0,1,.39-1.6,2.73,2.73,0,0,1,1.07-1.11,3.18,3.18,0,0,1,3,0,2.81,2.81,0,0,1,1.06,1.1,3.39,3.39,0,0,1,.38,1.61Zm-4.44-2.09a2.23,2.23,0,0,0-.68,1.47h4.34a2.23,2.23,0,0,0-.68-1.47,2.26,2.26,0,0,0-3,0Z"/><path class="cls-2" d="M189.58,90.71h3v.72h-3Z"/><path class="cls-2" d="M195.5,93.88a2.85,2.85,0,0,1-1.12-1.11,3.21,3.21,0,0,1-.41-1.61,3.15,3.15,0,0,1,.41-1.6,2.85,2.85,0,0,1,1.12-1.11,3.35,3.35,0,0,1,1.62-.39,3.25,3.25,0,0,1,1.42.3,2.39,2.39,0,0,1,1,.91l-.62.41a2,2,0,0,0-.76-.68,2.31,2.31,0,0,0-1-.22,2.47,2.47,0,0,0-1.19.29,2,2,0,0,0-.82.85,2.73,2.73,0,0,0,0,2.49,2.07,2.07,0,0,0,.82.84,2.36,2.36,0,0,0,1.19.29,2.31,2.31,0,0,0,1-.22,1.81,1.81,0,0,0,.76-.67l.62.42a2.39,2.39,0,0,1-1,.9,3.42,3.42,0,0,1-3-.09Z"/><path class="cls-2" d="M206,88.72a2.64,2.64,0,0,1,.68,2v3.55h-.83V90.75a2.06,2.06,0,0,0-.47-1.45,1.8,1.8,0,0,0-1.36-.5,2.12,2.12,0,0,0-1.57.59,2.22,2.22,0,0,0-.57,1.62v3.21H201V85.59h.83v3.58a2.19,2.19,0,0,1,.93-.82,3,3,0,0,1,1.36-.29A2.52,2.52,0,0,1,206,88.72Z"/><path class="cls-2" d="M214.26,91.42h-5.11a2.17,2.17,0,0,0,.73,1.54,2.43,2.43,0,0,0,1.67.58,2.59,2.59,0,0,0,1-.2,2.21,2.21,0,0,0,.82-.6l.47.54a2.64,2.64,0,0,1-1,.74,3.64,3.64,0,0,1-3-.14,2.94,2.94,0,0,1-1.13-1.11,3.11,3.11,0,0,1-.41-1.61,3.24,3.24,0,0,1,.39-1.6,2.79,2.79,0,0,1,1.07-1.11,3.18,3.18,0,0,1,3.05,0,2.81,2.81,0,0,1,1.06,1.1,3.27,3.27,0,0,1,.38,1.61Zm-4.43-2.09a2.19,2.19,0,0,0-.68,1.47h4.33a2.19,2.19,0,0,0-.68-1.47,2.08,2.08,0,0,0-1.49-.56A2,2,0,0,0,209.83,89.33Z"/><path class="cls-2" d="M221,88.1l-2.72,6.12h-.85L214.7,88.1h.86l2.29,5.21,2.32-5.21Z"/><path class="cls-2" d="M227.3,91.42h-5.12a2.21,2.21,0,0,0,.73,1.54,2.44,2.44,0,0,0,1.68.58,2.51,2.51,0,0,0,1-.2,2.24,2.24,0,0,0,.83-.6l.46.54a2.68,2.68,0,0,1-1,.74,3.66,3.66,0,0,1-3-.14,2.94,2.94,0,0,1-1.13-1.11,3.42,3.42,0,0,1,0-3.21,2.79,2.79,0,0,1,1.07-1.11,3.06,3.06,0,0,1,1.53-.39,2.94,2.94,0,0,1,1.52.39,2.68,2.68,0,0,1,1.06,1.1,3.28,3.28,0,0,1,.39,1.61Zm-4.44-2.09a2.19,2.19,0,0,0-.68,1.47h4.34a2.23,2.23,0,0,0-.68-1.47,2.08,2.08,0,0,0-1.5-.56A2.05,2.05,0,0,0,222.86,89.33Z"/><path class="cls-2" d="M234.5,88.1v6.12h-.79V93.1a2.26,2.26,0,0,1-.89.87,2.77,2.77,0,0,1-1.3.31,2.63,2.63,0,0,1-1.89-.67,2.58,2.58,0,0,1-.7-2V88.1h.83v3.47a2,2,0,0,0,.48,1.46,1.75,1.75,0,0,0,1.36.5,2,2,0,0,0,1.52-.58,2.31,2.31,0,0,0,.56-1.64V88.1Z"/><path class="cls-2" d="M240.71,94.22l-1.94-2.56-2,2.56h-.93l2.42-3.14-2.31-3h.93l1.84,2.4,1.84-2.4h.91l-2.31,3,2.44,3.14Z"/><path class="cls-2" d="M156.13,104.38h-2.86v-.74h6.58v.74H157v7.39h-.86Z"/><path class="cls-2" d="M167.93,103.64l-3.6,8.13h-.85l-3.61-8.13h.93l3.12,7.06,3.14-7.06Z"/><path class="cls-2" d="M172.37,111.62a3.33,3.33,0,0,1-1.07-.54l.37-.65a3.26,3.26,0,0,0,1,.49,3.78,3.78,0,0,0,1.21.19,2.36,2.36,0,0,0,1.24-.26.84.84,0,0,0,.4-.74.7.7,0,0,0-.22-.53,1.56,1.56,0,0,0-.56-.29,9,9,0,0,0-.9-.19,11.31,11.31,0,0,1-1.19-.28,1.84,1.84,0,0,1-.78-.5,1.37,1.37,0,0,1-.32-1,1.53,1.53,0,0,1,.64-1.26,2.85,2.85,0,0,1,1.78-.49,4.43,4.43,0,0,1,1.19.16,3.11,3.11,0,0,1,1,.41l-.36.66a3.13,3.13,0,0,0-1.8-.52,2.05,2.05,0,0,0-1.19.28.85.85,0,0,0-.4.73.72.72,0,0,0,.22.56,1.49,1.49,0,0,0,.57.31c.22.06.53.13.93.2a10.22,10.22,0,0,1,1.17.28,1.65,1.65,0,0,1,.76.48,1.29,1.29,0,0,1,.31.93,1.48,1.48,0,0,1-.66,1.27,3.16,3.16,0,0,1-1.86.47A4.74,4.74,0,0,1,172.37,111.62Z"/><path class="cls-2" d="M181.81,106.21a2.3,2.3,0,0,1,.64,1.77v3.79h-.79v-1a1.87,1.87,0,0,1-.82.75,3,3,0,0,1-1.28.26,2.48,2.48,0,0,1-1.63-.49,1.57,1.57,0,0,1-.61-1.29,1.55,1.55,0,0,1,.57-1.25,2.73,2.73,0,0,1,1.8-.48h1.94V108a1.56,1.56,0,0,0-.44-1.2,1.83,1.83,0,0,0-1.3-.42,3.45,3.45,0,0,0-1.11.19,2.85,2.85,0,0,0-.92.53l-.37-.61a3.14,3.14,0,0,1,1.11-.61,4.2,4.2,0,0,1,1.38-.22A2.57,2.57,0,0,1,181.81,106.21Zm-.93,4.65a1.91,1.91,0,0,0,.75-.92v-1h-1.92c-1.05,0-1.57.36-1.57,1.09a1,1,0,0,0,.41.84,1.82,1.82,0,0,0,1.14.31A2.1,2.1,0,0,0,180.88,110.86Z"/><path class="cls-2" d="M187.92,111.4a1.55,1.55,0,0,1-.58.32,2.15,2.15,0,0,1-.71.11,1.61,1.61,0,0,1-1.79-1.78v-3.69h-1.1v-.7h1.1v-1.34h.82v1.34h1.86v.7h-1.86V110a1.13,1.13,0,0,0,.28.83,1,1,0,0,0,.78.28,1.33,1.33,0,0,0,.49-.08,1.22,1.22,0,0,0,.42-.23Z"/><path class="cls-2" d="M194.52,109H189.4a2.2,2.2,0,0,0,.74,1.54,2.43,2.43,0,0,0,1.67.59,2.77,2.77,0,0,0,1.05-.2,2.32,2.32,0,0,0,.82-.6l.47.53a2.56,2.56,0,0,1-1,.75,3.44,3.44,0,0,1-1.34.25,3.36,3.36,0,0,1-1.67-.4,2.94,2.94,0,0,1-1.13-1.11,3.08,3.08,0,0,1-.41-1.6,3.28,3.28,0,0,1,.39-1.61A2.83,2.83,0,0,1,190,106a3.11,3.11,0,0,1,3.05,0,2.81,2.81,0,0,1,1.06,1.1,3.36,3.36,0,0,1,.38,1.61Zm-4.43-2.09a2.27,2.27,0,0,0-.69,1.48h4.34a2.21,2.21,0,0,0-.68-1.48,2.12,2.12,0,0,0-1.49-.56A2.08,2.08,0,0,0,190.09,106.88Z"/><path class="cls-2" d="M196.22,103.15H197v8.62h-.82Z"/><path class="cls-2" d="M199.35,103.15h.82v8.62h-.82Z"/><path class="cls-2" d="M202.46,104.15a.61.61,0,0,1-.17-.42.58.58,0,0,1,.17-.41.57.57,0,0,1,.43-.17.56.56,0,0,1,.43.17.52.52,0,0,1,.18.4.58.58,0,0,1-.18.43.6.6,0,0,1-.43.17A.61.61,0,0,1,202.46,104.15Zm0,1.51h.83v6.11h-.83Z"/><path class="cls-2" d="M208.82,111.4a1.44,1.44,0,0,1-.57.32,2.17,2.17,0,0,1-.72.11,1.62,1.62,0,0,1-1.79-1.78v-3.69h-1.09v-.7h1.09v-1.34h.83v1.34h1.86v.7h-1.86V110a1.17,1.17,0,0,0,.27.83,1,1,0,0,0,.78.28,1.38,1.38,0,0,0,.5-.08,1.09,1.09,0,0,0,.41-.23Z"/><path class="cls-2" d="M214.3,106.21a2.3,2.3,0,0,1,.64,1.77v3.79h-.79v-1a1.93,1.93,0,0,1-.82.75,3,3,0,0,1-1.29.26,2.47,2.47,0,0,1-1.62-.49,1.55,1.55,0,0,1-.61-1.29,1.57,1.57,0,0,1,.56-1.25,2.77,2.77,0,0,1,1.8-.48h1.94V108a1.53,1.53,0,0,0-.44-1.2,1.79,1.79,0,0,0-1.29-.42,3.51,3.51,0,0,0-1.12.19,2.91,2.91,0,0,0-.91.53l-.38-.61a3.19,3.19,0,0,1,1.12-.61,4.14,4.14,0,0,1,1.37-.22A2.6,2.6,0,0,1,214.3,106.21Zm-.93,4.65a1.89,1.89,0,0,0,.74-.92v-1h-1.92c-1,0-1.57.36-1.57,1.09a1,1,0,0,0,.41.84,1.82,1.82,0,0,0,1.14.31A2.11,2.11,0,0,0,213.37,110.86Z"/><path class="cls-2" d="M217.17,104.15a.61.61,0,0,1-.17-.42.58.58,0,0,1,.17-.41.57.57,0,0,1,.43-.17.56.56,0,0,1,.43.17.52.52,0,0,1,.18.4.58.58,0,0,1-.18.43.6.6,0,0,1-.43.17A.61.61,0,0,1,217.17,104.15Zm0,1.51H218v6.11h-.83Z"/><path class="cls-2" d="M222,105.93a2.92,2.92,0,0,1,1.42-.32v.8h-.2a2,2,0,0,0-1.51.6,2.37,2.37,0,0,0-.54,1.66v3.11h-.83v-6.11h.79v1.2A2,2,0,0,1,222,105.93Z"/><path class="cls-2" d="M230.15,109H225a2.19,2.19,0,0,0,.73,1.54,2.46,2.46,0,0,0,1.68.59,2.77,2.77,0,0,0,1.05-.2,2.42,2.42,0,0,0,.82-.6l.47.53a2.63,2.63,0,0,1-1,.75,3.47,3.47,0,0,1-1.34.25,3.36,3.36,0,0,1-1.67-.4,2.9,2.9,0,0,1-1.14-1.11,3.17,3.17,0,0,1-.4-1.6,3.28,3.28,0,0,1,.39-1.61,2.76,2.76,0,0,1,1.07-1.1,3.11,3.11,0,0,1,3.05,0,2.81,2.81,0,0,1,1.06,1.1,3.36,3.36,0,0,1,.38,1.61Zm-4.44-2.09a2.26,2.26,0,0,0-.68,1.48h4.34a2.26,2.26,0,0,0-.68-1.48,2.26,2.26,0,0,0-3,0Z"/><circle class="cls-3" cx="66.42" cy="63.75" r="52.55"/><rect class="cls-1" x="98.68" y="33.39" width="34.75" height="17.05" transform="translate(4.35 94.34) rotate(-45)"/><polyline class="cls-4" points="36.39 56.68 62.23 89.63 129.04 29.26"/></g></g></svg>