<svg xmlns="http://www.w3.org/2000/svg" viewBox="0 0 320.72 116.11"><title>verified-orange</title><g id="Calque_2" data-name="Calque 2"><g id="Body_5_Restaurant_" data-name="Body 5 (Restaurant)"><path d="M58.05,0H310.36a10.36,10.36,0,0,1,10.36,10.36v95.39a10.36,10.36,0,0,1-10.36,10.36H58.05A58.05,58.05,0,0,1,0,58.05v0A58.05,58.05,0,0,1,58.05,0Z" fill="#f28d23"/><text transform="translate(131.64 21.85)" font-size="10.59" fill="#fff" font-family="Montserrat-Regular, Montserrat"><tspan letter-spacing="-0.01em">C</tspan><tspan x="7.53" y="0" letter-spacing="0em">alama</tspan><tspan x="40.35" y="0" letter-spacing="0em">r</tspan><tspan x="44.56" y="0" letter-spacing="0em">s g</tspan><tspan x="59.77" y="0" letter-spacing="-0.01em">r</tspan><tspan x="63.93" y="0" letter-spacing="0em">illés sau</tspan><tspan x="105.38" y="0" letter-spacing="-0.01em">c</tspan><tspan x="111.25" y="0">e pis</tspan><tspan x="135.62" y="0" letter-spacing="-0.02em">t</tspan><tspan x="139.72" y="0">ou</tspan><tspan x="0" y="13.46" letter-spacing="-0.01em">C</tspan><tspan x="7.53" y="13.46" letter-spacing="0em">ama</tspan><tspan x="31.26" y="13.46" letter-spacing="-0.01em">r</tspan><tspan x="35.37" y="13.46">ons flambés</tspan><tspan x="0" y="26.92" letter-spacing="-0.01em">C</tspan><tspan x="7.53" y="26.92" letter-spacing="0em">a</tspan><tspan x="13.78" y="26.92" letter-spacing="-0.01em">r</tspan><tspan x="17.94" y="26.92">i de la</tspan><tspan x="49" y="26.92" letter-spacing="0em">n</tspan><tspan x="56.19" y="26.92">gous</tspan><tspan x="82.4" y="26.92" letter-spacing="-0.02em">t</tspan><tspan x="86.5" y="26.92">es</tspan><tspan x="0" y="40.37">C</tspan><tspan x="7.61" y="40.37" letter-spacing="-0.01em">r</tspan><tspan x="11.72" y="40.37" letter-spacing="-0.01em">e</tspan><tspan x="18.01" y="40.37" letter-spacing="-0.02em">v</tspan><tspan x="23.59" y="40.37">e</tspan><tspan x="29.99" y="40.37" letter-spacing="-0.01em">t</tspan><tspan x="34.14" y="40.37" letter-spacing="-0.02em">t</tspan><tspan x="38.24" y="40.37">es au gi</tspan><tspan x="78.84" y="40.37" letter-spacing="0em">n</tspan><tspan x="86.03" y="40.37">gemb</tspan><tspan x="118.11" y="40.37" letter-spacing="-0.01em">r</tspan><tspan x="122.21" y="40.37">e</tspan><tspan x="0" y="53.83">M</tspan><tspan x="10.11" y="53.83" letter-spacing="0em">a</tspan><tspan x="16.38" y="53.83">g</tspan><tspan x="23.64" y="53.83" letter-spacing="-0.01em">r</tspan><tspan x="27.75" y="53.83">et de cana</tspan><tspan x="83.2" y="53.83" letter-spacing="-0.01em">r</tspan><tspan x="87.3" y="53.83">d sau</tspan><tspan x="115.81" y="53.83" letter-spacing="-0.01em">c</tspan><tspan x="121.67" y="53.83">e </tspan><tspan x="130.84" y="53.83" letter-spacing="-0.02em">v</tspan><tspan x="136.41" y="53.83">anille</tspan><tspan x="0" y="67.29" letter-spacing="-0.01em">P</tspan><tspan x="7.44" y="67.29" letter-spacing="-0.01em">a</tspan><tspan x="13.59" y="67.29" letter-spacing="-0.02em">v</tspan><tspan x="19.17" y="67.29">é de </tspan><tspan x="44.68" y="67.29" letter-spacing="-0.01em">z</tspan><tspan x="50" y="67.29">ébu au poiv</tspan><tspan x="112.03" y="67.29" letter-spacing="-0.01em">r</tspan><tspan x="116.14" y="67.29">e </tspan><tspan x="125.31" y="67.29" letter-spacing="-0.02em">v</tspan><tspan x="130.89" y="67.29">e</tspan><tspan x="137.28" y="67.29" letter-spacing="0.01em">r</tspan><tspan x="141.69" y="67.29">t</tspan><tspan x="0" y="80.75" letter-spacing="-0.03em">T</tspan><tspan x="5.77" y="80.75" letter-spacing="0em">a</tspan><tspan x="12.02" y="80.75" letter-spacing="0.01em">r</tspan><tspan x="16.42" y="80.75" letter-spacing="0em">ta</tspan><tspan x="26.97" y="80.75" letter-spacing="-0.01em">r</tspan><tspan x="31.08" y="80.75">e d</tspan><tspan x="47.43" y="80.75" letter-spacing="-0.03em">’</tspan><tspan x="49.38" y="80.75">es</tspan><tspan x="60.95" y="80.75" letter-spacing="0em">p</tspan><tspan x="68.1" y="80.75" letter-spacing="0em">a</tspan><tspan x="74.36" y="80.75">don</tspan></text><circle cx="60.49" cy="58.05" r="47.86" fill="none" stroke="#fff" stroke-miterlimit="10" stroke-width="7.77"/><rect x="88.83" y="30.34" width="31.65" height="15.53" transform="translate(0.71 78.1) rotate(-41.05)" fill="#f28d23"/><polyline points="33.14 51.61 56.67 81.62 117.52 26.64" fill="none" stroke="#fff" stroke-linecap="round" stroke-miterlimit="10" stroke-width="7.77"/></g></g></svg>